<svg width="36" height="36" viewBox="0 0 78 78" fill="none" xmlns="http://www.w3.org/2000/svg">
<path fill-rule="evenodd" clip-rule="evenodd" d="M16.9356 0H16.4995L16.2028 0.319549L0.267206 17.4809L0 17.7687V18.1614V62.2907V62.7285L0.32172 63.0255L16.2573 77.7353L16.5446 78.0005H16.9356H59.8391H60.2206L60.5051 77.7464L77.6665 62.4237L78.0005 62.1255V61.6778V18.1614V17.7472L77.7076 17.4543L60.5462 0.292893L60.2533 0H59.8391H16.9356ZM2.43115 18.0898L6.84901 20.5196L19.2973 7.11373L16.7884 2.62811L2.43115 18.0898ZM6.23088 22.4622L2 20.1352V60.0456L6.23088 57.7187V22.4622ZM6.97111 59.5941L2.32267 62.1507L16.7401 75.4592L19.266 70.9432L6.97111 59.5941ZM8.81882 58.5778L13.4655 56.0222L22.7949 64.634L20.27 69.1482L8.81882 58.5778ZM12.4577 54.2939L8.23088 56.6187V23.5622L12.4577 25.8869V54.2939ZM15.3132 55.0059L23.7989 62.8389L26.3241 58.3242L19.9604 52.45L15.3132 55.0059ZM18.6866 50.868L14.4577 53.1939V26.9869L18.6866 29.3128V50.8363V50.868ZM13.0701 23.9412L8.65563 21.5132L20.3233 8.94805L22.8303 13.4302L13.0701 23.9412ZM19.2933 27.364L14.8767 24.9348L23.8562 15.2645L26.3644 19.7489L19.2933 27.364ZM21.0944 71.7713L18.729 76.0005H58.3411L55.9756 71.7713H21.0944ZM22.2131 69.7713L24.5792 65.541H52.4908L54.857 69.7713H22.2131ZM25.6978 63.541H51.3722L49.0067 59.3118H28.0633L25.6978 63.541ZM71.7723 57.0993L76.0005 59.4248V19.8213L71.7723 22.1468V57.0993ZM71.0975 59.0107L75.6697 61.5254L60.2413 75.3008L57.7804 70.901L71.0975 59.0107ZM69.7723 23.2468V55.9993L65.54 53.6715V25.5746L69.7723 23.2468ZM69.2393 57.9887L64.6638 55.4721L54.3176 64.7099L56.7802 69.1128L69.2393 57.9887ZM63.54 26.6746V52.5715L59.3098 50.2449V29.0012L63.54 26.6746ZM62.8056 54.4501L58.2322 51.9348L50.8559 58.5208L53.3174 62.9217L62.8056 54.4501ZM64.7096 23.7488L69.1091 21.329L56.74 8.95987L54.2939 13.3331L64.7096 23.7488ZM57.7545 7.14599L70.9339 20.3254L75.3316 17.9067L60.1995 2.77464L57.7545 7.14599ZM53.2794 15.147L62.8848 24.7524L58.4859 27.1718L50.8337 19.5196L53.2794 15.147ZM24.5784 12.4587L22.2132 8.22991H54.8567L52.4914 12.4587H24.5784ZM28.063 18.6886L25.6971 14.4587H51.3728L49.0069 18.6886H28.063ZM21.0946 6.22991L18.7287 2H58.3412L55.9753 6.22991H21.0946ZM20.6866 28.8027L28.2211 20.6886H49.1743L57.3098 28.8242V50.0771L49.207 57.3118H28.176L20.6866 50.3985V28.8027Z" fill="#020202"/>
</svg>
