<svg width="36" height="36" viewBox="0 0 22 40" fill="none" xmlns="http://www.w3.org/2000/svg">
<path fill-rule="evenodd" clip-rule="evenodd" d="M10.3455 0L18.2224 15.5054L21.8182 29.6405L17.6965 35.5491L10.7968 40L3.66217 35.546L0.176193 29.9241H0.0904404L0.090444 29.7859L0 29.64L2.69451 15.5171L10.3455 0ZM1.01129 29.9241L3.36831 33.7254L2.54851 29.9242L1.01129 29.9241ZM3.50297 30.9765L4.35755 34.9388H7.08039L3.50297 30.9765ZM7.71744 35.644H5.15417L9.45442 38.3287L7.71744 35.644ZM11.5064 38.7007L16.2449 35.644H13.4842L11.5064 38.7007ZM14.0099 34.9388H16.9124L17.7643 30.9885L14.0099 34.9388ZM18.7054 29.9984L17.8112 34.1447L20.7552 29.9243H18.7666L18.7714 29.9289L18.7054 29.9984ZM18.7677 29.2191H20.9773L18.3272 18.8017C18.3565 19.456 18.3887 20.1763 18.4222 20.9327C18.5445 23.6926 18.6849 26.9366 18.7677 29.2191ZM17.3097 15.2767L11.1593 3.16983L13.9387 15.2767H17.3097ZM13.209 15.2767L10.3328 2.74819L7.89929 15.2767H13.209ZM7.17479 15.2767L9.49519 3.33059L3.60493 15.2767H7.17479ZM2.8788 18.3462L0.804393 29.2189L2.50217 29.2189C2.58206 26.9385 2.69498 23.6992 2.78993 20.9422C2.82232 20.0016 2.85262 19.1172 2.8788 18.3462ZM3.66911 15.9819C3.6194 17.5653 3.43362 22.9312 3.28994 27.0483L7.04177 15.9819H3.66911ZM6.7114 19.1701L3.30457 29.2189H5.57853L6.7114 19.1701ZM5.7214 29.9242H3.50769L7.04744 33.8448L5.7214 29.9242ZM8.56264 35.644H12.639L10.6008 38.7942L8.56264 35.644ZM8.22849 34.9388H13.0063L13.0477 34.8163L10.7625 30.2393L8.22849 34.9388ZM7.88024 34.0886L6.47177 29.9242L10.1257 29.9243L7.88024 34.0886ZM11.399 29.9243L14.7023 29.9243L13.3683 33.8685L11.399 29.9243ZM14.1567 33.7559L17.7983 29.9243L15.4526 29.9243L14.1567 33.7559ZM15.5553 29.2191L17.9662 29.2191L14.3179 18.2436L15.5553 29.2191ZM13.1091 15.9819H8.01119L10.7056 27.3256L13.1091 15.9819ZM10.361 28.952L10.3275 29.1103L10.4023 29.1259L10.4245 29.219L6.29439 29.219L7.62373 17.4279L10.361 28.952ZM11.1554 29.219L11.0899 28.9433L13.5169 17.4885L14.8394 29.2191L11.1554 29.219ZM14.3152 15.9819L17.9688 26.9733C17.8558 24.1848 17.7061 20.8363 17.6008 18.4808C17.5514 17.3759 17.5118 16.4895 17.4903 15.9819H14.3152Z" fill="#020202"/>
</svg>
