<svg width="36" height="36" viewBox="0 0 78 78" fill="none" xmlns="http://www.w3.org/2000/svg">
<path fill-rule="evenodd" clip-rule="evenodd" d="M38.8173 0.00333178L38.7594 0L38.7016 0.00337082L18.2586 1.19456L18.0317 1.20778L17.8329 1.31772L7.49111 7.03543L7.25322 7.16695L7.11465 7.40081L0.620982 18.3598L0.487703 18.5847L0.481567 18.8461L0.00520516 39.1364L0.00220318 39.1431L0.00491172 39.1489L0.000554085 39.3345L0 39.3581L0.000560582 39.3817L0.481573 59.632L0.487901 59.8984L0.625962 60.1263L7.11963 70.847L7.25777 71.0751L7.49111 71.2041L17.8329 76.9218L18.0373 77.0349L18.2707 77.0456L38.9543 77.9986L38.9998 78.0006L39.0453 77.9986L60.2098 77.0456L60.464 77.0342L60.6819 76.9026L70.5426 70.9467L70.7534 70.8194L70.8809 70.6088L77.3746 59.8881L77.5125 59.6604L77.519 59.3943L78 39.6206L78.0006 39.5968L78 39.573L77.519 18.8463L77.5127 18.5762L77.3713 18.346L70.6371 7.38704L70.4993 7.16278L70.2689 7.03543L59.9272 1.31772L59.728 1.20761L59.5008 1.19452L38.8173 0.00333178ZM2.10329 43.6829L2.47468 59.3181L7.3086 67.2986L8.42423 57.3526L8.42532 57.3429L7.90024 56.2083L2.10329 43.6829ZM10.0226 56.4377L19.5677 56.0354L17.3684 41.3796L10.1236 56.2306L10.0226 56.4377ZM17.4394 37.0004L19.7978 22.2047L10.207 21.8089L17.4394 37.0004ZM8.38913 20.574L7.31387 10.9879L2.47488 19.1544L2.11545 34.4642L7.90512 21.6456L8.38913 20.574ZM34.3582 2.25985L18.6017 3.17796L11.0452 7.35579L21.1093 8.85117L21.1551 8.85798L21.8418 8.51482L34.3582 2.25985ZM21.9623 10.7589V20.0939L37.4245 17.8171L21.9623 10.7589ZM40.3973 17.8646L55.2915 20.0878L55.0959 10.983L40.3973 17.8646ZM56.5443 8.96935L66.7471 7.37359L59.1586 3.17813L43.1059 2.25363L55.6522 8.52349L56.5443 8.96935ZM57.0948 10.9076L68.6404 9.10177L67.3999 19.8102L57.2946 20.2122L57.0948 10.9076ZM59.6496 36.7228L57.4712 22.2068L67.2922 21.8161L59.6496 36.7228ZM59.582 41.3465L57.2447 56.0101L67.4878 56.2091L67.4348 56.1096L59.582 41.3465ZM69.3025 56.8583L69.3336 57.0961L70.6472 67.1342L75.526 59.0796L75.919 42.9269L69.6818 56.0596L69.3025 56.8583ZM75.8972 35.1674L75.5258 19.1629L70.4459 10.896L69.303 20.7621L69.6736 21.5717L75.8972 35.1674ZM67.4622 58.209L68.8642 68.9227L57.0762 67.3121V58.0072L67.4622 58.209ZM57.9504 38.8769L55.2052 56.0995L38.9957 58.3609L21.5988 56.0935L19.0881 39.3626L21.8343 22.1343L38.7588 19.6422L55.4376 22.1318L57.9504 38.8769ZM18.5961 75.0585L11.0413 70.8816L20.8697 69.412L21.7218 69.2846V69.1566L22.1283 69.3445L36.2486 75.8718L18.5961 75.0585ZM41.7011 75.877L59.8656 75.0591L67.0855 70.6983L56.1394 69.2027L55.8327 69.3445L41.7011 75.877ZM55.0762 66.7602L41.3177 60.0564L55.0762 58.1368V66.7602ZM36.6192 60.0681L22.1053 67.1399L21.7218 67.3268V58.1264L36.6192 60.0681ZM10.3162 58.4271L19.7218 58.0307V67.5614L9.11375 69.1476L10.3162 58.4271ZM10.3162 19.8117L9.11361 9.09075L19.9623 10.7027V20.2098L10.3162 19.8117ZM38.7383 2.29798L24.1708 9.57796L38.9703 16.3337L53.3513 9.60071L38.7383 2.29798ZM38.9805 61.1334L24.4389 68.2187L38.9805 74.9406L53.522 68.2187L38.9805 61.1334ZM68.5066 23.8479L75.5006 39.1266L68.5073 53.8514L60.674 39.1251L68.5066 23.8479ZM16.2303 39.1327L9.03613 24.0213L2.21072 39.1331L9.03592 53.8803L16.2303 39.1327Z" fill="#020202"/>
</svg>
