<svg width="36" height="36" viewBox="0 0 36 36" fill="none" xmlns="http://www.w3.org/2000/svg">
<path fill-rule="evenodd" clip-rule="evenodd" d="M10.8141 1.70377L8.65975 7.42869H14.2138C15.2046 6.27614 16.2104 5.05403 17.2668 3.71783C15.2093 3.57577 13.1766 2.87394 10.8141 1.70377ZM17.7989 4.49597C16.9744 5.53454 16.1794 6.50515 15.3972 7.42869H17.7989V4.49597ZM18.6989 7.42869H21.0952C20.3155 6.50525 19.5225 5.53482 18.6989 4.49641V7.42869ZM19.2049 3.68518C20.27 5.03414 21.2815 6.26682 22.277 7.42869H27.4603L25.2166 1.75921C22.9742 2.86001 21.0524 3.4968 19.2049 3.68518ZM26.1969 1.79029L28.3904 7.33269L31.7531 4.94894C30.4931 3.59877 28.725 2.49699 26.1969 1.79029ZM32.3375 5.63838L29.1877 7.87121L34.4403 10.2746C34.0181 8.56334 33.3758 6.98788 32.3375 5.63838ZM34.4919 11.2885L28.4927 8.54354L27.8783 13.4416C29.1373 14.6898 30.4712 15.9569 31.9421 17.3179L34.4919 11.2885ZM30.9573 17.6327C29.852 16.6055 28.8224 15.6285 27.8412 14.6686V17.6327H30.9573ZM27.8412 18.5333V21.3861C28.8065 20.4582 29.8236 19.5167 30.9221 18.5333H27.8412ZM31.9469 18.8258C30.4625 20.1443 29.1291 21.3818 27.8765 22.6054L28.166 26.932L34.5487 24.6306L31.9469 18.8258ZM34.5139 25.6005L28.7999 27.6607L32.3407 30.1661C32.4679 29.9868 32.5891 29.8064 32.7046 29.6256C33.6922 28.0791 34.2439 26.5302 34.5139 25.6005ZM31.7931 30.8816L28.0283 28.2178L26.1999 34.2914C28.6969 33.8093 30.5012 32.4459 31.7931 30.8816ZM25.2858 34.2053L27.1513 28.0085H22.7567C21.5985 29.3235 20.4204 30.7202 19.1536 32.2645C21.0469 32.4475 23.009 33.0911 25.2858 34.2053ZM18.6989 31.3999C19.6934 30.1915 20.6361 29.0717 21.5605 28.0085H18.6989V31.3999ZM17.7989 28.0085H14.9304C15.8581 29.0718 16.8033 30.1918 17.7989 31.4003V28.0085ZM17.3171 32.2318C16.0597 30.7006 14.8868 29.3143 13.7323 28.0085H8.64268L10.8056 34.224C13.1769 33.0513 15.234 32.3605 17.3171 32.2318ZM9.87327 34.2834L7.81108 28.3573L4.15815 31.0048C5.40558 32.4946 7.22243 33.7859 9.87327 34.2834ZM3.6108 30.2894L7.18154 27.7015L1.62653 25.5152C1.82909 26.5588 2.29927 28.2276 3.3153 29.8438C3.40908 29.9929 3.50751 30.1417 3.6108 30.2894ZM1.67997 24.5684L7.73428 26.9513L8.55803 22.5731C7.30643 21.3557 5.97526 20.1239 4.49699 18.8117L1.67997 24.5684ZM5.53791 18.5333C6.64911 19.5275 7.67875 20.4789 8.65652 21.4165V18.5333H5.53791ZM8.65652 17.6327V14.6376C7.66274 15.6075 6.62054 16.5945 5.50265 17.6327H8.65652ZM4.49269 17.3411C5.99912 15.948 7.36468 14.6537 8.65403 13.3778L7.6794 8.52148L1.55147 11.2813L4.49269 17.3411ZM1.61506 10.265L7.08157 7.80309L3.76588 5.60026C2.74005 6.96028 2.09281 8.54631 1.61506 10.265ZM4.34413 4.90338L7.78749 7.191L9.84424 1.7255C7.32217 2.43175 5.58595 3.54238 4.34413 4.90338ZM12.0738 1.30785C14.1922 2.28128 15.99 2.79826 17.7989 2.84112V0.90487C15.6312 0.934122 13.6096 1.10972 12.0738 1.30785ZM18.6989 0.901413V2.82338C20.3233 2.72122 22.0288 2.23749 24.0452 1.31788C22.3174 1.02923 20.4757 0.912111 18.6989 0.901413ZM8.6934 9.00004L11.0794 10.9022C10.5346 11.4772 9.98298 12.0455 9.41875 12.6142L8.6934 9.00004ZM9.55652 13.7506V22.1337L9.53169 22.2658C11.1418 23.8469 12.6285 25.4138 14.1368 27.1078H22.3512C23.8578 25.4091 25.3412 23.8381 26.9509 22.2523L26.9412 22.1068V13.7792C25.1685 12.009 23.5343 10.2629 21.8642 8.32934H14.6256C12.9583 10.2526 11.3244 11.9904 9.55652 13.7506ZM13.43 8.32934H9.29649L11.6976 10.2435C12.278 9.61934 12.8531 8.98426 13.43 8.32934ZM23.0579 8.32934C23.5671 8.90968 24.0746 9.47441 24.5857 10.0298L26.9845 8.32934H23.0579ZM27.5219 9.05211L25.2039 10.6953C25.8161 11.3481 26.436 11.9911 27.0725 12.6348L27.5219 9.05211ZM27.0305 23.4421C26.4484 24.025 25.881 24.6083 25.3208 25.1991L27.2388 26.5562L27.0305 23.4421ZM26.4594 27.1078L24.6984 25.8617C24.3172 26.2715 23.938 26.686 23.5584 27.1078H26.4594ZM12.9274 27.1078C12.4754 26.6077 12.0239 26.1177 11.5688 25.6338L9.53511 27.1078H12.9274ZM8.71855 26.5876L10.9434 24.9751C10.415 24.4239 9.87955 23.8785 9.33088 23.333L8.71855 26.5876ZM1.13425 12.4832L3.63367 17.6327H0.919518C0.868823 15.8717 0.909572 14.0581 1.13425 12.4832ZM0.953234 18.5333C0.96012 18.6838 0.967569 18.8334 0.975531 18.9821C1.0633 20.6217 1.21136 22.1238 1.33326 23.2291L3.6311 18.5333H0.953234ZM12.1423 34.5864C14.812 34.9113 16.371 35.0755 17.7989 35.097V33.113C16.0038 33.1518 14.2171 33.6463 12.1423 34.5864ZM18.6989 33.1316V35.0915C20.0805 35.054 21.5364 34.8834 23.9774 34.5861C22.0053 33.7028 20.3153 33.2331 18.6989 33.1316ZM34.8838 23.1774L32.8022 18.5333H35.0919C35.0879 18.7974 35.0826 19.059 35.076 19.3171C35.038 20.8202 34.9602 22.1802 34.8838 23.1774ZM35.0998 17.6327C35.1036 15.9408 35.0438 14.2024 34.8725 12.6995L32.7862 17.6327H35.0998ZM10.4928 0.632761C13.4193 0.127832 20.2401 -0.524528 25.5551 0.698198C28.8998 1.46762 31.1699 2.86371 32.7184 4.67894C34.262 6.48835 35.0559 8.67605 35.518 10.9721C35.9825 13.2807 36.0463 16.5558 35.9758 19.34C35.9053 22.1175 35.6987 24.4839 35.5991 24.9785C35.5024 25.4596 34.9496 27.7827 33.4629 30.1106C31.9722 32.4449 29.5155 34.8212 25.6168 35.2937C25.2213 35.3417 24.8473 35.3873 24.4924 35.4306C21.522 35.7931 19.8941 35.9918 18.2251 35.9998C16.3549 36.0086 14.4351 35.7783 10.5142 35.2937C6.42498 34.7883 3.98347 32.5979 2.55353 30.3234C1.13364 28.0649 0.709172 25.7253 0.613971 24.858C0.599908 24.7299 0.580597 24.5647 0.557464 24.367C0.432961 23.3024 0.197928 21.2927 0.0768211 19.0303C-0.0662516 16.3576 -0.0541985 13.2784 0.506838 10.9552C1.05795 8.67309 1.85081 6.47465 3.36861 4.65268C4.89406 2.82146 7.11997 1.40792 10.4685 0.637658L10.4806 0.63487L10.4928 0.632761Z" fill="white"/>
</svg>
