<svg width="36" height="36" viewBox="0 0 62 90" fill="none" xmlns="http://www.w3.org/2000/svg">
<path fill-rule="evenodd" clip-rule="evenodd" d="M13.5806 0H13.2197L12.942 0.230481L0.361376 10.6712L0 10.9711V11.4407V80.0508V80.5667L0.420351 80.8657L13.001 89.8149L13.2613 90H13.5806H47.4516H47.7624L48.0185 89.8238L61.5668 80.5018L62 80.2038V79.678V11.4407V10.9488L61.6104 10.6486L48.062 0.207909L47.7922 0H47.4516H13.5806ZM2.26677 11.6889L13.5662 2.31154L15.3539 5.66357L5.68676 14.1969L2.26677 11.6889ZM2 79.5067V79.535L13.1509 87.4671L14.9501 84.0935L5.49772 76.9417L2 79.5067ZM2 77.0266L5 74.8266V16.1734L2 13.9734V77.0266ZM7.18098 75.7074L15.9031 82.3066L17.712 78.915L10.6957 73.1299L7.18098 75.7074ZM10 71.1599L7 73.3599V17.6401L10 19.8401V71.1599ZM12.3596 71.9097L18.6723 77.1145L20.4984 73.6906L15.8609 69.3421L12.3596 71.9097ZM15 67.4933L12 69.6933V21.3067L15 23.5067V67.4933ZM15.8026 21.6152L12.3933 19.115L19.0916 12.6718L20.892 16.0475L15.8026 21.6152ZM10.7564 17.9146L7.33753 15.4074L16.3213 7.47739L18.1134 10.8376L10.7564 17.9146ZM15.1333 88L16.7333 85H44.7097H45.0338L46.8338 88H15.1333ZM48.5744 87.0136L59.7505 79.3238L56.2751 76.7751L46.6553 83.8153L48.5744 87.0136ZM60 13.9734V77.0266L57 74.8266V16.1734L60 13.9734ZM55 17.6401V73.3599L52 71.1599V19.8401L55 17.6401ZM51.1104 72.9877L54.5836 75.5347L45.622 82.0931L43.7032 78.895L51.1104 72.9877ZM50 21.3067V69.6933L47 67.4933V23.5067L50 21.3067ZM49.4393 71.7622L45.9792 69.2248L40.7479 73.9695L42.6651 77.1648L49.4393 71.7622ZM48.1061 2.76684L59.7079 11.7075L56.2997 14.2069L46.2061 5.93354L48.1061 2.76684ZM45.166 7.66701L54.6345 15.428L51.2252 17.9281L43.2718 10.824L45.166 7.66701ZM42.2242 12.5699L49.5765 19.1372L46.1738 21.6325L40.3415 15.7079L42.2242 12.5699ZM39.0338 75L40.8338 78H20.4667L22.0667 75H22.2903H39.0338ZM42.0338 80L43.8338 83H17.8L19.4 80H41.9677H42.0338ZM13.6005 87.7869L14 88H13.9L13.6005 87.7869ZM46.2338 2H15.6667L17.2667 5H44.4338L46.2338 2ZM43.2338 7H18.3333L19.9333 10H41.4338L43.2338 7ZM40.2338 12H21L22.6 15H38.4338L40.2338 12ZM17 23.2695L22.7311 17H38.807L45 23.291V67.4129L38.8399 73H22.6858L17 67.6685V23.2695Z" fill="white"/>
</svg>
