<svg width="36" height="36" viewBox="0 0 85 80" fill="none" xmlns="http://www.w3.org/2000/svg">
<path d="M2.83159 35.4629C3.69919 39.1312 4.95238 42.6064 6.49477 45.8886C9.86876 53.5149 14.9779 60.1757 21.7259 66.0644C27.4135 70.9876 34.2578 75.3317 42.1626 79C42.1626 79 42.1626 79 42.259 79C42.3554 79 42.3554 79 42.4518 79C42.5482 79 42.6446 79 42.741 78.9035C67.3229 67.7055 81.108 50.3292 83.7108 27.547C83.9036 25.8094 84 24.3614 84 23.1064C84 22.2376 83.9036 21.2723 83.8072 20.4035C82.9396 13.5495 78.9872 7.66089 73.2997 4.18564C73.2997 4.18564 73.2997 4.18564 73.2033 4.18564C69.8293 2.15842 65.9733 1 61.7317 1C53.9233 1 44.187 6.98515 42.4518 8.14356C40.7166 6.98515 30.9803 1 23.1719 1C18.9303 1 15.0743 2.15842 11.7003 4.18564C11.7003 4.18564 11.6039 4.18564 11.6039 4.28218C5.24158 8.14356 1 15.1906 1 23.203C1 24.4579 1.0964 25.9059 1.2892 27.6436C1.6748 30.25 2.15679 32.953 2.83159 35.4629ZM3.89199 35.7525L12.7607 33.5322L6.97677 44.6337C5.62718 41.7376 4.66318 38.8416 3.89199 35.7525ZM20.3763 25.3267L13.6283 32.0842L2.63879 20.6931L20.3763 14.1287V25.3267ZM20.5691 26.4851L22.5935 38.8416L14.3995 32.6634L20.5691 26.4851ZM13.8211 33.5322L22.7863 40.1931L20.5691 49.0743L7.65157 45.4059L13.8211 33.5322ZM23.4611 41.0619L31.6551 51.2946L21.4367 49.2673L23.4611 41.0619ZM7.74797 46.4678L19.8943 49.8465L13.6283 56.0247C11.4112 53.0322 9.38676 49.8465 7.74797 46.4678ZM14.3031 56.8936L20.4727 50.7153L21.5331 64.5198C18.8339 62.1064 16.4239 59.5965 14.3031 56.8936ZM21.3403 50.2327L32.4262 52.453L34.6434 63.651L22.4971 65.099L21.3403 50.2327ZM33.583 53.2252L41.6806 59.3069L35.6074 63.3614L33.583 53.2252ZM23.1719 66.0644L34.6434 64.7129L32.619 72.8218C29.2451 70.698 26.0639 68.4777 23.1719 66.0644ZM33.4866 73.3045L35.4146 65.4852L41.3914 77.552C38.6922 76.2005 35.993 74.849 33.4866 73.3045ZM42.5482 77.552L35.993 64.3267L42.6446 59.8861L49.2962 64.3267L42.5482 77.552ZM43.4158 59.3069L51.5134 53.2252L49.489 63.3614L43.4158 59.3069ZM43.5122 77.6485L49.5854 65.4852L51.7062 73.2079C49.1998 74.7525 46.4042 76.2005 43.5122 77.6485ZM52.5738 72.7253L50.3566 64.7129L61.7317 66.1609C59.0325 68.4777 55.9477 70.6015 52.5738 72.7253ZM50.3566 63.7475L52.5738 52.5495L63.6597 50.3292L62.4065 65.2921L50.3566 63.7475ZM53.3449 51.2946L61.5389 41.0619L63.5633 49.2673L53.3449 51.2946ZM63.4669 64.6163L64.6237 50.7153L70.7933 56.8936C68.6725 59.5965 66.2625 62.203 63.4669 64.6163ZM71.3717 56.1213L65.1057 49.9431L77.3484 46.4678C75.7096 49.8465 73.7817 53.0322 71.3717 56.1213ZM64.6237 49.0743L62.4065 40.1931L71.3717 33.5322L77.5412 45.5025L64.6237 49.0743ZM64.5273 26.4851L70.6969 32.6634L62.5029 38.8416L64.5273 26.4851ZM63.7561 24.8441L51.899 20.8861L63.7561 14.2252V24.8441ZM64.7201 25.3267V14.1287L82.4576 20.6931L71.4681 32.0842L64.7201 25.3267ZM78.1196 44.7302L72.3357 33.5322L81.2044 35.7525C80.4332 38.8416 79.4692 41.8342 78.1196 44.7302ZM83.036 23.1064C83.036 24.2649 82.9396 25.7129 82.7468 27.4505C82.4576 29.9604 82.072 32.3738 81.4936 34.7871L72.4321 32.4703L83.036 21.5619C83.036 22.0446 83.036 22.6238 83.036 23.1064ZM82.7468 19.7277L65.1057 13.2599L73.2033 5.15099C78.216 8.33663 81.7828 13.646 82.7468 19.7277ZM61.8281 1.86881C65.6841 1.86881 69.2509 2.93069 72.3357 4.66832L64.2381 12.7772L55.3693 3.02723C57.5865 2.35148 59.8037 1.86881 61.8281 1.86881ZM63.4669 13.3564L50.6458 20.5L43.3194 18.0866L54.5017 3.5099L63.4669 13.3564ZM43.0302 8.91584C43.9942 8.33663 48.2358 5.63366 53.1521 3.7995L43.0302 16.8317V8.91584ZM43.0302 18.9554L49.489 21.0792L43.0302 24.651V18.9554ZM42.3554 25.9059C42.4518 25.9059 42.4518 26.0025 42.5482 26.0025C42.6446 26.0025 42.741 26.0025 42.741 25.9059L50.6458 21.4653L63.5633 25.8094L61.2497 39.8069L51.7062 51.6807L42.5482 58.7277L33.2938 51.7772L23.7503 39.9035L21.4367 25.9059L34.3542 21.5619L42.3554 25.9059ZM21.3403 24.8441V14.2252L33.1974 20.7896L21.3403 24.8441ZM35.6074 21.0792L42.0662 18.9554V24.7475L35.6074 21.0792ZM42.0662 8.91584V16.8317L31.7515 3.70297C36.7642 5.53713 41.1022 8.2401 42.0662 8.91584ZM41.777 18.0866L34.4506 20.5L21.6295 13.3564L30.4019 3.5099L41.777 18.0866ZM23.2683 1.86881C25.2927 1.86881 27.4135 2.25495 29.6307 2.93069L20.8583 12.6807L12.7607 4.57178C15.8455 2.93069 19.4123 1.86881 23.2683 1.86881ZM11.8931 5.15099L19.9907 13.2599L2.34959 19.7277C3.31359 13.646 6.88037 8.43317 11.8931 5.15099ZM2.15679 21.5619L12.7607 32.4703L3.69919 34.7871C3.12079 32.3738 2.73519 29.9604 2.44599 27.4505C2.15679 25.7129 2.06039 24.2649 2.06039 23.1064C2.06039 22.6238 2.0604 22.0446 2.15679 21.5619Z" fill="#020202" stroke="#020202" stroke-width="0.5"/>
</svg>
