<svg width="36" height="36" viewBox="0 0 44 89" fill="none" xmlns="http://www.w3.org/2000/svg">
<path d="M22.0844 0.00224991C22.0448 -0.00590165 22.1239 0.0114204 22.0844 0.00224991C29.0715 5.83469 33.7174 11.5051 37.6936 18.974C41.826 26.6742 43.9717 35.4697 43.9978 44.3264C44.0546 51.1085 43.0361 57.4035 40.6255 63.6863C38.6176 68.94 35.8814 74.1244 32.436 78.461C29.2691 82.4686 28.5763 83.5558 22.1624 89C14.0808 82.0274 8.34914 74.3852 4.01334 64.7053C0.389712 55.6713 -0.905146 45.1802 0.64316 35.5084C1.54016 29.8319 3.09039 25.1108 5.6831 20.0537C9.68923 12.216 14.9857 5.86832 22.0844 0.00224991ZM21.1516 5.67669C19.7899 8.98482 18.9598 11.4205 17.846 14.2288C19.2257 14.9155 20.5861 15.642 21.9668 16.3247C22.1383 16.4399 22.3223 16.3247 22.4823 16.2473C23.6828 15.6217 24.889 15.0103 26.0934 14.3959C26.2177 14.3327 26.3285 14.2522 26.4287 14.1534C24.9931 10.7929 23.5342 6.25064 22.089 2.89424C21.7518 3.46179 21.5851 4.62366 21.1516 5.67669ZM17.2842 6.87129C16.6859 7.55194 14.6319 9.89213 14.0942 10.6288C14.945 11.5214 15.7977 12.414 16.6821 13.271C17.9693 10.2783 21.1516 2.93551 21.1516 2.93551C21.1516 2.93551 19.5406 4.30436 17.2842 6.87129ZM23.2172 2.8949C23.2172 2.8949 26.2996 10.2844 27.5906 13.2822C28.4674 12.411 29.3316 11.5204 30.1872 10.6258C29.1052 9.28892 27.7284 7.1742 26.5106 5.97592C24.5362 3.88537 23.2172 2.8949 23.2172 2.8949ZM13.1365 11.7456C11.3223 14.0077 9.68345 16.4266 8.2498 18.974C10.7616 17.4731 13.257 15.9416 15.7543 14.4101C14.8862 13.5165 14.0335 12.6015 13.1365 11.7456ZM28.529 14.4061C31.0052 15.9508 33.5102 17.4558 36.0056 18.9679C34.5961 16.4093 32.9475 13.9944 31.1247 11.7486C30.246 12.6168 29.3779 13.5033 28.529 14.4061ZM17.5416 15.7103C17.4491 18.2108 17.293 20.7072 17.2063 23.2057C17.6659 22.6086 18.0532 21.9544 18.4819 21.3339C19.3211 20.0469 20.2152 18.7998 21.0207 17.4914C19.8635 16.8913 18.7083 16.2901 17.5416 15.7103ZM26.0828 16.0272C25.1434 16.5316 24.1838 16.986 23.2492 17.4965C24.5152 19.4417 25.7985 21.3767 27.1204 23.2811C26.9152 20.7969 26.8719 18.2964 26.7273 15.8051C26.4932 15.799 26.2861 15.9233 26.0828 16.0272ZM7.42796 21.1831C7.21214 21.3227 6.96356 21.4388 6.81904 21.6711C6.78339 22.0808 6.87878 22.4873 6.91732 22.8939C7.24297 25.8509 7.59079 28.8038 7.90681 31.7628C10.513 29.6403 13.125 27.5178 15.7032 25.3577C15.8516 22.2091 16.027 19.0586 16.1397 15.909C13.2156 17.6259 10.3377 19.4386 7.42796 21.1831ZM28.1302 15.9161C28.2429 19.0596 28.4308 22.199 28.5589 25.3424C31.1073 27.5107 33.7337 29.5731 36.2889 31.7312C36.4189 31.5896 36.3891 31.3746 36.4247 31.1962C36.76 28.1455 37.1136 25.0989 37.4479 22.0481C37.5009 21.7771 37.4007 21.4877 37.1522 21.3746C34.5103 19.7678 31.8685 18.1588 29.2256 16.5509C28.8643 16.3319 28.5146 16.0914 28.1302 15.9161ZM17.1995 25.8111C16.7814 26.5886 16.6985 27.5066 16.4413 28.3473C15.0972 33.6407 13.7503 38.9341 12.4062 44.2275C12.2993 44.5597 12.4534 44.8919 12.5228 45.2139C13.9873 50.9485 15.4412 56.6872 16.898 62.4228C16.9789 62.7224 17.0935 63.0159 17.2708 63.2675C18.7045 65.4073 20.1372 67.5502 21.567 69.695C21.7587 69.9671 21.9109 70.2789 22.1672 70.4959C23.7781 68.0973 25.3775 65.6896 26.9884 63.2889C27.3237 62.81 27.4249 62.2139 27.5704 61.6525C28.9983 56.0279 30.4271 50.4064 31.8569 44.7818C31.9889 44.4109 31.8078 44.0411 31.7287 43.6814C30.3529 38.2647 28.9742 32.8459 27.5983 27.4261C27.4422 26.8403 27.3478 26.2156 27.0096 25.7072C25.3833 23.2872 23.7695 20.858 22.147 18.435C20.4734 20.8743 18.8509 23.3565 17.1995 25.8111ZM5.28133 25.1733C4.38337 27.4649 3.59332 29.8125 3.04992 32.2264C4.22633 32.2702 5.39984 32.3344 6.57432 32.3762C6.30551 29.6688 5.96154 26.9707 5.6831 24.2664C5.52798 24.5578 5.4008 24.8645 5.28133 25.1733ZM38.5877 24.4162C38.2736 27.0644 37.9817 29.7178 37.6936 32.3701C38.87 32.3578 40.0435 32.2386 41.2238 32.2488C40.639 29.6077 39.7564 27.0451 38.7419 24.5558C38.7043 24.5211 38.6272 24.4498 38.5877 24.4162ZM8.24595 33.3574C8.26714 33.4889 8.30087 33.6203 8.34422 33.7477C9.37321 36.5263 10.4388 39.2887 11.4418 42.0786C11.4678 42.0429 11.5227 41.9675 11.5487 41.9308C12.7733 37.1744 13.9555 32.4037 15.1936 27.6513C12.888 29.569 10.5641 31.4601 8.24595 33.3574ZM29.1331 27.7318C30.298 32.53 31.5736 37.2977 32.75 42.0928C32.8685 41.9318 32.936 41.7382 33.0131 41.5538C34.0122 38.8526 35.0383 36.1605 36.0278 33.4563L35.9998 33.3483C33.7154 31.4703 31.4426 29.5751 29.1331 27.7318ZM1.69142 41.1106C3.1665 38.6753 4.6782 36.2614 6.12052 33.8068C4.98844 33.7895 3.85924 33.7191 2.72812 33.6702C2.16449 36.1055 1.85328 38.608 1.69142 41.1106ZM38.2303 33.8007C38.2399 34.1043 38.4654 34.3295 38.6012 34.5802C39.9356 36.7189 41.1891 38.9147 42.5621 41.025C42.4792 39.0605 42.1969 37.1112 41.8635 35.1773C41.7585 34.6719 41.7094 34.1481 41.5263 33.6641C40.428 33.7253 39.3286 33.7854 38.2303 33.8007ZM1.81764 43.6253C1.45826 44.1216 1.47078 44.8817 1.83787 45.3728C3.63764 48.3115 5.41622 51.2623 7.22081 54.1979C8.4107 51.084 9.55627 47.9508 10.7356 44.8328C10.7992 44.6473 10.8897 44.4435 10.777 44.2581C9.58422 41.1065 8.44539 37.9294 7.21503 34.7962C5.39117 37.7205 3.62608 40.6867 1.81764 43.6253ZM37.052 34.8013C36.945 35.0326 36.8467 35.269 36.7619 35.5084C35.6665 38.4919 34.5209 41.455 33.4408 44.4425C33.5333 44.9561 33.7819 45.4187 33.9419 45.9088C34.9863 48.6518 35.9757 51.4192 37.0433 54.1531C37.5742 53.4541 37.973 52.6542 38.449 51.9134C39.8412 49.63 41.2344 47.3445 42.6228 45.058C42.7509 44.6198 42.7711 44.0625 42.4908 43.6783C40.665 40.7295 38.9057 37.7307 37.052 34.8013ZM11.3956 47.05C10.3492 49.8908 9.26145 52.7164 8.22668 55.5613C9.25952 56.4742 10.355 57.3098 11.4071 58.1993C12.6683 59.2091 13.8929 60.2688 15.1685 61.2612C13.9468 56.4844 12.7425 51.7005 11.5198 46.9247C11.488 46.9542 11.4254 47.0184 11.3956 47.05ZM32.7462 46.9226C31.5534 51.6995 30.2999 56.4579 29.1312 61.2409C31.4513 59.367 33.7646 57.4779 36.0509 55.5592C35.0633 52.8804 34.0507 50.2128 33.0603 47.5371C32.9707 47.3241 32.9235 47.0765 32.7462 46.9226ZM1.70106 47.8917C1.85328 50.3799 2.16063 52.8723 2.73197 55.2912C3.8631 55.2444 4.99422 55.2016 6.12437 55.1323C4.64736 52.7204 3.1983 50.2872 1.70106 47.8917ZM40.5426 51.2012C39.7651 52.5156 38.9153 53.7832 38.1889 55.1313C39.32 55.1914 40.453 55.281 41.5832 55.2607C42.0591 52.8356 42.458 50.3799 42.5621 47.9039C41.8693 48.9891 41.2161 50.1038 40.5426 51.2012ZM3.03836 56.7412C3.69545 59.4842 4.57221 62.1752 5.68985 64.745C5.95095 62.0316 6.29587 59.3263 6.58299 56.6138C5.4008 56.6016 4.22055 56.7076 3.03836 56.7412ZM37.6898 56.6148C37.9682 59.1795 38.2727 61.7401 38.5482 64.3048C38.5502 64.421 38.5935 64.5168 38.6764 64.5932C39.7073 62.0489 40.6053 59.4363 41.2296 56.7453C40.0493 56.7035 38.87 56.6026 37.6898 56.6148ZM7.90777 57.2242C7.55225 60.4318 7.1919 63.6395 6.82675 66.8471C6.77857 67.1049 6.78532 67.4157 7.04738 67.54C10.0775 69.3914 13.1086 71.2459 16.1474 73.079C16.0067 69.908 15.8805 66.7309 15.6811 63.564C13.0797 61.464 10.5303 59.2926 7.90777 57.2242ZM28.5763 63.5854C28.4028 66.7483 28.2699 69.9141 28.1167 73.0769C31.1535 71.254 34.1779 69.4046 37.1984 67.5532C37.4846 67.4309 37.4826 67.0957 37.4412 66.8196C37.0837 63.616 36.7147 60.4145 36.365 57.2099C33.7491 59.311 31.1719 61.4589 28.5763 63.5854ZM17.1957 65.7059C17.3007 68.2054 17.4404 70.7038 17.5416 73.2043C17.7111 73.1646 17.8769 73.1034 18.031 73.0178C18.9743 72.5196 19.93 72.0447 20.8781 71.5516C20.9137 71.52 20.985 71.4527 21.0207 71.4211C19.7373 69.5239 18.4732 67.6103 17.1957 65.7059ZM24.1202 70.1291C23.8494 70.5927 23.4689 70.9942 23.2598 71.4965C24.4285 72.0386 25.5403 72.7203 26.7264 73.2165C26.8266 70.7415 26.9846 68.2706 27.0597 65.7955C26.025 67.1956 25.1106 68.6924 24.1202 70.1291ZM8.27003 70.0048C9.6796 72.5634 11.332 74.9701 13.1462 77.222C13.7802 76.6188 14.3679 75.9616 14.9961 75.3492C15.2331 75.0639 15.5568 74.8519 15.7264 74.5126C13.2252 73.0402 10.7693 71.4802 8.27003 70.0048ZM28.5271 74.5269C29.3547 75.4623 30.2411 76.3416 31.1275 77.2169C32.9475 74.9752 34.5826 72.5613 36.0047 70.017C33.4881 71.4741 31.036 73.0535 28.5271 74.5269ZM21.7394 72.7427C20.4445 73.4285 19.1274 74.0704 17.8345 74.7602C19.165 77.974 20.5409 82.1883 21.8801 85.4001C21.9572 85.5865 22.0323 85.7771 22.1508 85.9411C23.5864 82.5572 25.0258 78.1564 26.4296 74.7602C25.0769 74.0286 23.6953 73.3592 22.3349 72.6449C22.1393 72.4992 21.9263 72.6612 21.7394 72.7427ZM14.0808 78.3479C16.0279 80.6691 18.5822 84.0079 20.8743 85.9429C19.6343 82.9187 17.9674 78.6811 16.6725 75.6824C15.8083 76.5678 14.9315 77.4452 14.0808 78.3479ZM27.5906 75.6895C26.2957 78.6954 24.5577 82.9268 23.283 85.9429C25.5848 84.009 28.2323 80.6793 30.1891 78.3561C29.3422 77.4492 28.4751 76.5587 27.5906 75.6895Z" fill="white"/>
</svg>
