<svg width="36" height="36" viewBox="0 0 63 92" fill="none" xmlns="http://www.w3.org/2000/svg">
<path d="M31.5222 1C23.0064 1 15.3545 6.13863 9.86712 14.2949C4.37943 22.4512 1 33.6525 1 46.0224C1 58.3671 4.37943 69.555 9.86712 77.7049C15.3545 85.8548 23.0064 91 31.5222 91C40.0136 91 47.652 85.8547 53.133 77.7049C58.614 69.5551 62 58.3671 62 46.0224C62 33.6525 58.614 22.451 53.133 14.2949C47.652 6.13878 40.0136 1 31.5222 1ZM30.7203 2.48723L24.7494 13.4386L18.9123 6.76864C22.5073 4.1716 26.5123 2.65984 30.7203 2.48723ZM32.458 2.48723C36.4696 2.67976 40.2718 4.12349 43.7314 6.5433L38.4287 12.5824L32.458 2.48723ZM31.6114 3.88432L37.4485 13.709L31.2103 20.7846L25.7743 14.6104L31.6114 3.88432ZM44.8897 7.39959C47.1916 9.20229 49.3176 11.4311 51.2171 14.0696L39.1417 14.0249L39.2301 13.9801L39.1859 13.8907L44.8894 7.40099L44.8897 7.39959ZM17.7538 7.66999L23.3681 14.0245L11.783 14.0692C13.5872 11.5664 15.5835 9.4236 17.7538 7.66964V7.66999ZM24.1257 15.4667L23.6355 26.5082L13.9218 28.6264L11.783 15.5117L24.1257 15.467V15.4667ZM38.8743 15.4667L51.1278 15.5114L49.1228 28.6711L39.2308 26.8234L38.8743 15.4664V15.4667ZM37.5376 15.7821L37.8049 26.1026L32.1461 21.9113L37.5376 15.7821ZM52.5092 15.9624C54.5007 19.0871 56.1913 22.644 57.4997 26.5533L50.5042 29.1221L52.5092 15.9624ZM10.4463 16.007L12.5851 29.1217L5.4558 26.5979C6.75918 22.6889 8.45794 19.1338 10.4463 16.007ZM25.5069 16.5028L30.2301 21.8658L25.0613 26.012L25.5069 16.5028ZM31.1657 22.9474H31.2099H31.2541L37.4476 27.5443L42.4829 43.4531L40.2547 60.128L31.3877 67.1588L23.7237 60.3083L20.5602 43.1377L25.1942 27.7246L31.1649 22.9474H31.1657ZM57.9453 27.8598C59.1781 31.8733 59.9847 36.2296 60.3514 40.7942L51.0834 30.4286L57.9453 27.8598ZM23.6355 27.9491L19.6252 41.4244L14.3229 30.0222L23.6355 27.9491ZM5.05485 27.9939L11.9166 30.3824L2.64858 40.6128C3.0183 36.16 3.85898 31.9207 5.05485 27.9939ZM39.1417 28.2643L48.6772 30.0219L43.4194 41.8296L39.1417 28.2643ZM13.2535 31.0134L18.957 43.3618L12.5851 53.547L3.13879 42.1901L13.2535 31.0134ZM49.7466 31.058L59.8167 42.2798L50.4595 53.5918L44.3105 43.3164L49.7466 31.058ZM2.47034 43.5868L11.6939 54.6734L4.25266 61.2532C3.06977 56.5198 2.42586 51.3742 2.42586 46.0204C2.42586 45.202 2.44012 44.3938 2.47006 43.5868H2.47034ZM60.5297 43.767C60.5553 44.5141 60.5739 45.2637 60.5739 46.0204C60.5739 51.3059 59.9469 56.3901 58.7915 61.073L51.4395 54.5832L60.5294 43.767H60.5297ZM43.6867 45.0289L49.4793 54.6282L41.8151 59.3604L43.6867 45.0289ZM19.4917 45.2092L22.1651 59.4955L13.8772 54.1326L19.4917 45.2092ZM13.8327 55.8L22.2096 61.2081L22.8781 74.9989L10.4908 74.6384L13.8327 55.8ZM50.014 55.9355L53.2221 73.6923L40.924 75.8556L41.7707 61.0283L50.014 55.9355ZM12.3624 55.9803L9.15419 73.8272C7.31427 70.5152 5.77862 66.7787 4.65376 62.7406L12.3624 55.9803ZM51.5736 56.6112L58.3909 62.6054C57.3889 66.2349 56.0533 69.5998 54.4698 72.6554L51.5736 56.6112ZM40.2555 61.8842L39.5426 75.3145L32.5026 68.0585L40.2555 61.8842ZM23.68 62.1546L30.4528 68.2388L24.2593 74.2778L23.68 62.1546ZM31.5668 69.0952L39.0972 76.8918L31.7897 88.1586L24.3039 76.4862H24.3923V76.1257L31.5662 69.0952H31.5668ZM53.0884 75.1792C52.7306 75.7728 52.3532 76.3287 51.9745 76.8918C50.4372 79.1777 48.7288 81.206 46.8949 82.9308L41.3696 77.2523L53.0884 75.1792ZM10.4908 76.0805L22.0314 76.4411L15.7488 82.6153C14.0442 80.9641 12.4672 79.0328 11.0255 76.8918C10.845 76.6235 10.6669 76.3558 10.4908 76.0805ZM23.1453 77.3424L30.943 89.5557C25.8004 89.4031 20.953 87.2519 16.7735 83.5617L23.1453 77.3424ZM40.1666 77.9734L45.8701 83.8772C41.9277 87.2523 37.4175 89.2368 32.6362 89.5107L40.1666 77.9734Z" fill="white" stroke="white" stroke-width="0.5"/>
</svg>
