<svg width="36" height="36" viewBox="0 0 63 92" fill="none" xmlns="http://www.w3.org/2000/svg">
<path fill-rule="evenodd" clip-rule="evenodd" d="M60.4254 29.9655V30.0002L60.427 30.0348C60.4405 30.3174 60.4512 30.6018 60.459 30.8879L49.9915 24.5061L53.4406 12.1293C57.7792 16.9347 60.4254 23.1683 60.4254 29.9655ZM41.8869 53.5883L46.7728 36.0559L48.8327 45.5099L41.8869 53.5883ZM39.5487 56.3078L45.8818 33.5821L41.8168 22.7656L31.8411 18.2681L31.7104 18.3851L31.5442 18.2287L22.6721 22.1626L17.6747 34.629L23.6815 56.5755L31.5 65.669L39.5487 56.3078ZM33.0576 17.1777L41.0753 20.7925L38.039 12.7133L33.0576 17.1777ZM36.4056 12.157L27.2886 12.157L31.7359 16.3421L36.4056 12.157ZM26.2473 13.2441L30.3639 17.118L23.4688 20.1753L26.2473 13.2441ZM43.7724 23.6473L46.5734 31.1004L48.106 25.6011L43.7724 23.6473ZM49.5616 26.0486L47.4809 33.515L48.1698 35.348L48.1884 35.3977L48.1997 35.4494L50.0765 44.0632L60.0898 32.4171L49.5801 26.0096L49.5616 26.0486ZM48.5117 24.1452L43.0309 21.6742L39.4542 12.157L51.8526 12.157L48.5117 24.1452ZM16.0723 34.5415L13.7651 26.1119L13.5155 26.2226L13.4171 26.0113L2.91021 32.4171L13.5483 44.7899L15.7214 35.4396L15.7341 35.3851L15.7549 35.3332L16.0723 34.5415ZM17.0103 32.2016L15.1727 25.4878L20.6807 23.0456L17.0103 32.2016ZM25.0456 12.157L21.4773 21.0583L14.7739 24.0306L11.524 12.157L25.0456 12.157ZM14.7793 46.2216L16.8411 37.3503L21.3659 53.8824L14.7793 46.2216ZM50.5895 45.7815L60.4152 34.3535C60.0201 42.0177 57.6394 50.7876 52.5533 60.4683L50.5895 45.7815ZM49.2585 47.3295L40.9324 57.0134L37.0511 70.9407L51.2678 62.3558L49.2585 47.3295ZM37.3709 72.4972L41.5191 77.3219C44.8873 73.0072 47.744 68.8248 50.1374 64.7879L37.3709 72.4972ZM35.6083 70.4472L38.5942 59.7329L32.4952 66.8264L35.6083 70.4472ZM31.5 67.9839L35.1211 72.1955L31.5066 85.1656L27.9379 72.1269L31.5 67.9839ZM24.611 59.9715L30.5048 66.8264L27.4573 70.3709L24.611 59.9715ZM22.2954 57.2783L25.8306 70.1944L11.7592 62.3508L14.4134 48.111L22.2954 57.2783ZM2.55581 34.3198C2.83958 42.0618 5.11661 50.7901 10.5088 60.7433L13.1395 46.6294L2.55581 34.3198ZM21.5558 77.2347L26.037 72.0228L12.7185 64.5989C15.1438 68.6142 18.0672 72.8214 21.5558 77.2347ZM2.60006 30.0494C2.58418 30.3238 2.57076 30.5994 2.55986 30.8764L13.2803 24.3405L9.9742 12.2614C5.69988 17.0806 2.99058 23.3034 2.60006 30.0494ZM36.3146 73.5836L40.5663 78.5287C38.0743 81.6506 35.3152 84.8405 32.2711 88.0933L36.3146 73.5836ZM26.7406 73.5194L22.5144 78.4348C24.9553 81.4599 27.66 84.5808 30.6498 87.802L26.7406 73.5194ZM32.541 1.01435C32.2251 1.00481 31.9082 1 31.5902 1C15.0755 1 1.99289 14.1527 1.07749 29.9655C0.175201 45.5519 6.98066 64.8713 30.5521 89.9052C30.8946 90.2689 31.2406 90.6339 31.5902 91C31.9411 90.6355 32.2884 90.2718 32.6323 89.9088C55.0179 66.2775 62.7016 45.6846 61.9504 29.9655C61.9504 14.2792 48.6378 1.50525 32.55 1.01462L32.5478 1.01068L32.541 1.01435ZM32.1398 3.35748L36.3041 10.6694L27.527 10.6694L32.1398 3.35748ZM37.9543 10.5037L43.8383 5.13041C40.631 3.67526 37.1111 2.77001 33.4208 2.54364L37.9543 10.5037ZM19.8795 4.97623C23.25 3.46899 26.9664 2.58927 30.8927 2.49589L25.7364 10.6694H25.7158L19.8795 4.97623ZM45.2934 5.83932L40.0043 10.6694L52.0249 10.6694C50.0425 8.7653 47.7745 7.1334 45.2934 5.83932ZM11.4958 10.6694C13.541 8.68331 15.8759 6.99178 18.4352 5.67116L23.5592 10.6694H11.4958Z" fill="#020202" stroke="#020202" stroke-width="0.5"/>
</svg>
