<svg width="36" height="36" viewBox="0 0 78 78" fill="none" xmlns="http://www.w3.org/2000/svg">
<path fill-rule="evenodd" clip-rule="evenodd" d="M78 0H76H2H3.40948e-06V2V76L0 78H2H76H78V76V2V0ZM5.24325 76H72.9091L56.3636 69.5H56H22.2838L5.24325 76ZM27.527 67.5L39.5749 62.9044L51.2727 67.5H27.527ZM57 67.6012L74.518 74.4833L67.4677 56H57V67.6012ZM57.0612 54H66.7048L61.9226 41.4628L57.0612 54ZM63.0016 38.68L67 49.1622V28.3684L63.0016 38.68ZM76 72.7568L69 54.4054V23.2105L76 5.15789V72.7568ZM74.5047 3.48214L67.3243 22H57V10.1938L74.5047 3.48214ZM57.4021 24H66.5488L61.9379 35.8912L57.4021 24ZM60.8588 38.6741L55.2615 24H55V23.4716L38.7767 17.181L23.7836 22.9296L17.2805 39.4829L22.8466 54H23V54.2441L39.5855 60.7598L54.5011 55.0704L60.8588 38.6741ZM21 56V67.8491L3.51672 74.518L10.7917 56H21ZM20.7047 54L16.1965 42.2422L11.5774 54H20.7047ZM11 50L15.1352 39.4741L11 28.6892L11 50ZM9 23.473L2 5.21622V72.9091L9 55.0909V55L9 23.473ZM11.344 24L16.2192 36.7148L21.2143 24H11.344ZM21 22H10.5772L3.48215 3.49531L21 10.2879V22ZM55 57.0206V66.8155L42.35 61.8459L55 57.0206ZM23 67.0862V56.3929L36.8104 61.8184L23 67.0862ZM38.7808 15.0374L50.6149 10.5H27.079L38.7808 15.0374ZM22 8.5H55.8311L72.7838 2H5.1579L21.9211 8.5H22ZM23 21.0881V11.0635L35.9992 16.1039L23 21.0881ZM55 21.3265V10.9606L41.5583 16.1144L55 21.3265Z" fill="#020202"/>
</svg>
