<svg width="36" height="36" viewBox="0 0 62 90" fill="none" xmlns="http://www.w3.org/2000/svg">
<path fill-rule="evenodd" clip-rule="evenodd" d="M8.87645 0H8.42119L8.12224 0.34336L0.245796 9.39009L0 9.67241V10.0467V78.5826V78.918L0.202335 79.1857L8.07878 89.6031L8.37887 90H8.87645H53.8185H54.3438L54.6419 89.5676L61.8233 79.1501L62 78.8938V78.5826V10.0467V9.68079L61.7638 9.40129L54.119 0.354557L53.8194 0H53.3552H8.87645ZM6.88864 15.3335L2.34164 10.0287L9.33171 2H9.5L14.6464 8.86185L6.88864 15.3335ZM2 12.7033L6 17.3699V70.6301L2 75.2967V12.7033ZM2.04935 78.3123L6.61664 72.9838L14.653 81.1293L9.5 88H9.37402L2.04935 78.3123ZM12 88H50.1958L46.4458 82H46.0698H16.5L12 88ZM53.2933 88H52.5542L48.0078 80.7256L48.0152 80.452L55.3834 72.9838L59.9623 78.326L53.2933 88ZM48.0943 77.5241L53.5273 72.0174C52.0363 71.972 50.2446 72.0137 48.2393 72.1598L48.0943 77.5241ZM46.0472 79.2405L46.2338 72.3345C43.573 72.6031 40.6238 73.0428 37.555 73.6876C36.6827 73.8709 35.8021 74.0704 34.917 74.287C38.7922 75.5816 42.6006 77.2137 46.0472 79.2405ZM46.2883 70.3193C43.4797 70.5934 40.3691 71.0527 37.1438 71.7303C35.2306 72.1323 33.2705 72.6125 31.3035 73.1788C29.2849 72.6124 27.273 72.1323 25.3091 71.7303C22.1898 71.0918 19.1748 70.6472 16.4268 70.3687L15.031 44.5466L15.0326 44.5405L15.0302 44.5308L15.0015 44.0015L16.4953 17.8609C19.2008 17.7138 22.1649 17.4396 25.237 16.9902C27.2601 16.6943 29.336 16.3215 31.42 15.8573C33.3715 16.2978 35.3142 16.6564 37.2094 16.9452C40.4023 17.4318 43.4762 17.7227 46.2531 17.8721L46.9996 44.0008L46.9891 44.3886L46.9669 44.4757L46.9849 44.5439L46.2883 70.3193ZM48.2936 70.1508C50.333 70.0081 52.1662 69.9703 53.7078 70.0222L48.7998 51.4218L48.2936 70.1508ZM59.667 10.0186L55.1114 15.3335L48.0122 9.41122L48.0082 9.27364L52.5542 2H52.891L59.667 10.0186ZM35.9102 14.7087C39.4305 13.6838 42.8822 12.3643 46.0475 10.6781L46.1958 15.866C43.5273 15.7175 40.5766 15.4353 37.5107 14.9681C36.98 14.8872 36.4462 14.8008 35.9102 14.7087ZM48.0884 12.0794L48.1991 15.9549C49.8812 16.0105 51.4175 16.0119 52.7577 15.9745L48.0884 12.0794ZM53.7282 17.9413C52.1744 18.0087 50.3213 18.0231 48.2563 17.9578L48.8076 37.252L53.7282 17.9413ZM60 12.7033L56 17.3699V70.6301L60 75.2967V12.7033ZM50.1958 2H12L16.5 8H45.9581H46.3205L46.4028 8.06869L50.1958 2ZM16.6101 15.8515L16.9068 10.6603C20.0379 12.3465 23.4566 13.6683 26.9411 14.6964C26.2731 14.8098 25.608 14.9147 24.9475 15.0113C22.0204 15.4394 19.1952 15.7048 16.6101 15.8515ZM14.4142 70.1902L13.372 50.9092L8.38895 70.0201C10.0886 69.9671 12.1334 70.0176 14.4142 70.1902ZM14.5231 72.2046L14.8631 78.4946L8.4736 72.0183C10.1529 71.967 12.2096 72.0214 14.5231 72.2046ZM16.9068 79.2481L16.5361 72.3906C19.1252 72.663 21.9634 73.0869 24.908 73.6897C25.8344 73.8793 26.7699 74.0863 27.7099 74.3115C23.9521 75.6037 20.2576 77.2305 16.9068 79.2481ZM9.25174 15.9667C10.8023 16.0142 12.6103 16.0145 14.6016 15.9441L14.868 11.2815L9.25174 15.9667ZM13.3465 37.9075L14.487 17.9492C12.1222 18.0282 10.0099 18.0096 8.26845 17.931L13.3465 37.9075ZM20.0535 10H42.9142C39.3035 11.6649 35.3702 12.9021 31.4229 13.8062C27.5204 12.9005 23.6259 11.6623 20.0535 10ZM31.3107 75.2602C27.2807 76.4536 23.2652 78.0128 19.6174 80H43.3081C39.5702 78.013 35.4489 76.4537 31.3107 75.2602ZM54 24.9744L49.0331 44.4669L54 63.2907V24.9744ZM12.9674 44.5341L8 63.5849V24.9929L12.9674 44.5341Z" fill="white"/>
</svg>
