<svg id="b747d35b-2cda-4168-a8c3-2d803a11b9d7" data-name="Layer 1" xmlns="http://www.w3.org/2000/svg" viewBox="0 0 70 36"><title>ring_style</title><g id="bfc43359-c21e-4c26-b7ea-18f8e1913201" data-name="Solitaire"><rect x="45.71" y="15.32" width="18.29" height="5.35" rx="1.48" ry="1.48" fill="none" stroke="#4a4a4a" stroke-miterlimit="10" stroke-width="0.5"/><rect x="6" y="15.32" width="18.29" height="5.35" rx="1.48" ry="1.48" fill="none" stroke="#4a4a4a" stroke-miterlimit="10" stroke-width="0.5"/><g id="4facf193-872a-487b-8979-bf259777b1b7" data-name="Round"><g id="63991057-8b74-4538-add9-cad638cb53f1" data-name="Diamond"><polygon points="41.14 18 39.32 13.69 34.97 11.92 30.64 13.73 28.86 18.07 30.68 22.38 35.03 24.15 39.36 22.34 41.14 18" fill="none" stroke="#4a4a4a" stroke-width="0.5"/><path d="M31,27.91a10.67,10.67,0,1,1,14-5.84A10.66,10.66,0,0,1,31,27.91Z" fill="none" stroke="#4a4a4a" stroke-width="0.5"/><line x1="35" y1="7.37" x2="34.97" y2="11.92" fill="none" stroke="#4a4a4a" stroke-width="0.5"/><line x1="39.32" y1="13.69" x2="42.67" y2="10.6" fill="none" stroke="#4a4a4a" stroke-width="0.5"/><line x1="41.14" y1="18" x2="45.71" y2="17.87" fill="none" stroke="#4a4a4a" stroke-width="0.5"/><line x1="35.04" y1="24.15" x2="34.97" y2="28.7" fill="none" stroke="#4a4a4a" stroke-width="0.5"/><line x1="30.68" y1="22.38" x2="27.4" y2="25.55" fill="none" stroke="#4a4a4a" stroke-width="0.5"/><line x1="28.86" y1="18.07" x2="24.29" y2="18.04" fill="none" stroke="#4a4a4a" stroke-width="0.5"/><line x1="30.64" y1="13.73" x2="27.4" y2="10.52" fill="none" stroke="#4a4a4a" stroke-width="0.5"/><line x1="39.36" y1="22.34" x2="42.67" y2="25.48" fill="none" stroke="#4a4a4a" stroke-width="0.5"/></g></g></g></svg>