<svg id="8008d239-73e3-4b62-a2db-002b8b113566" data-name="Layer 1" xmlns="http://www.w3.org/2000/svg" viewBox="0 0 70 36"><title>ring_style</title><g id="ce6afd54-01e1-414f-87ec-2c37863529f3" data-name="Has Matching Band"><path d="M28.54,26.51H7.46A1.49,1.49,0,0,1,6,25V22.64a1.49,1.49,0,0,1,1.48-1.48H24.71" fill="none" stroke="#4a4a4a" stroke-miterlimit="10" stroke-width="0.5"/><path d="M21.83,26a2.15,2.15,0,0,1-2.14-2.07v-.1a2.18,2.18,0,0,1,2.14-2.11,2.12,2.12,0,0,1,2.14,2v.17A2.15,2.15,0,0,1,21.83,26Z" fill="none" stroke="#4a4a4a" stroke-width="0.5"/><path d="M17,26.05A2.15,2.15,0,0,1,14.85,24v-.1A2.18,2.18,0,0,1,17,21.77a2.12,2.12,0,0,1,2.14,2V24A2.15,2.15,0,0,1,17,26.05Z" fill="none" stroke="#4a4a4a" stroke-width="0.5"/><path d="M12.15,26.05A2.15,2.15,0,0,1,10,24v-.1a2.18,2.18,0,0,1,2.14-2.11,2.12,2.12,0,0,1,2.14,2V24A2.15,2.15,0,0,1,12.15,26.05Z" fill="none" stroke="#4a4a4a" stroke-width="0.5"/><rect x="45.67" y="15.32" width="18.29" height="5.35" rx="1.48" ry="1.48" fill="none" stroke="#4a4a4a" stroke-miterlimit="10" stroke-width="0.5"/><rect x="5.96" y="15.32" width="18.29" height="5.35" rx="1.48" ry="1.48" fill="none" stroke="#4a4a4a" stroke-miterlimit="10" stroke-width="0.5"/><g id="09436596-4f30-4a4b-9b90-5b8f1bd89a40" data-name="Round"><g id="ae7c678b-f30e-4d0e-a57e-f3304fff5759" data-name="Diamond"><polygon points="41.09 18 39.27 13.69 34.92 11.92 30.6 13.73 28.82 18.07 30.64 22.38 34.99 24.15 39.32 22.34 41.09 18" fill="none" stroke="#4a4a4a" stroke-width="0.5"/><path d="M30.92,27.91a10.67,10.67,0,1,1,14-5.84A10.66,10.66,0,0,1,30.92,27.91Z" fill="none" stroke="#4a4a4a" stroke-width="0.5"/><line x1="34.96" y1="7.37" x2="34.92" y2="11.92" fill="none" stroke="#4a4a4a" stroke-width="0.5"/><line x1="39.27" y1="13.69" x2="42.63" y2="10.6" fill="none" stroke="#4a4a4a" stroke-width="0.5"/><line x1="41.09" y1="18" x2="45.67" y2="17.87" fill="none" stroke="#4a4a4a" stroke-width="0.5"/><line x1="34.99" y1="24.15" x2="34.92" y2="28.7" fill="none" stroke="#4a4a4a" stroke-width="0.5"/><line x1="30.64" y1="22.38" x2="27.36" y2="25.55" fill="none" stroke="#4a4a4a" stroke-width="0.5"/><line x1="28.82" y1="18.07" x2="24.25" y2="18.04" fill="none" stroke="#4a4a4a" stroke-width="0.5"/><line x1="30.6" y1="13.73" x2="27.36" y2="10.52" fill="none" stroke="#4a4a4a" stroke-width="0.5"/><line x1="39.32" y1="22.34" x2="42.63" y2="25.48" fill="none" stroke="#4a4a4a" stroke-width="0.5"/></g></g><path d="M21.81,20.17a2.15,2.15,0,0,1-2.14-2.07V18a2.18,2.18,0,0,1,2.14-2.11,2.12,2.12,0,0,1,2.14,2v.17A2.15,2.15,0,0,1,21.81,20.17Z" fill="none" stroke="#4a4a4a" stroke-width="0.5"/><path d="M17,20.22a2.15,2.15,0,0,1-2.14-2.07V18A2.18,2.18,0,0,1,17,15.93a2.12,2.12,0,0,1,2.14,2v.17A2.15,2.15,0,0,1,17,20.22Z" fill="none" stroke="#4a4a4a" stroke-width="0.5"/><path d="M12.12,20.22A2.15,2.15,0,0,1,10,18.14V18a2.18,2.18,0,0,1,2.14-2.11,2.12,2.12,0,0,1,2.14,2v.17A2.15,2.15,0,0,1,12.12,20.22Z" fill="none" stroke="#4a4a4a" stroke-width="0.5"/><path d="M57.79,20.19a2.15,2.15,0,0,1-2.14-2.07V18a2.18,2.18,0,0,1,2.14-2.11,2.12,2.12,0,0,1,2.14,2v.17A2.15,2.15,0,0,1,57.79,20.19Z" fill="none" stroke="#4a4a4a" stroke-width="0.5"/><path d="M52.94,20.24a2.15,2.15,0,0,1-2.14-2.07v-.1A2.18,2.18,0,0,1,52.94,16a2.12,2.12,0,0,1,2.14,2v.17A2.15,2.15,0,0,1,52.94,20.24Z" fill="none" stroke="#4a4a4a" stroke-width="0.5"/><path d="M48.1,20.24A2.15,2.15,0,0,1,46,18.17v-.1A2.18,2.18,0,0,1,48.1,16a2.12,2.12,0,0,1,2.14,2v.17A2.15,2.15,0,0,1,48.1,20.24Z" fill="none" stroke="#4a4a4a" stroke-width="0.5"/><path d="M27.62,25.71a2.14,2.14,0,0,1-3.22-1.78v-.1a2.1,2.1,0,0,1,.77-1.59" fill="none" stroke="#4a4a4a" stroke-width="0.5"/><path d="M41.48,26.43H62.56A1.49,1.49,0,0,0,64,24.94V22.56a1.49,1.49,0,0,0-1.48-1.48H45.31" fill="none" stroke="#4a4a4a" stroke-miterlimit="10" stroke-width="0.5"/><path d="M48.19,25.92a2.15,2.15,0,0,0,2.14-2.07v-.1a2.18,2.18,0,0,0-2.14-2.11,2.12,2.12,0,0,0-2.14,2v.17A2.15,2.15,0,0,0,48.19,25.92Z" fill="none" stroke="#4a4a4a" stroke-width="0.5"/><path d="M53,26a2.15,2.15,0,0,0,2.14-2.07v-.1A2.18,2.18,0,0,0,53,21.68a2.12,2.12,0,0,0-2.14,2v.17A2.15,2.15,0,0,0,53,26Z" fill="none" stroke="#4a4a4a" stroke-width="0.5"/><path d="M57.88,26A2.15,2.15,0,0,0,60,23.89v-.1a2.18,2.18,0,0,0-2.14-2.11,2.12,2.12,0,0,0-2.14,2v.17A2.15,2.15,0,0,0,57.88,26Z" fill="none" stroke="#4a4a4a" stroke-width="0.5"/><path d="M42.4,25.62a2.14,2.14,0,0,0,3.22-1.78v-.1a2.1,2.1,0,0,0-.77-1.59" fill="none" stroke="#4a4a4a" stroke-width="0.5"/></g></svg>