<svg id="6d63591a-e8cb-4bd6-b79f-8be3851b35da" data-name="Layer 1" xmlns="http://www.w3.org/2000/svg" viewBox="0 0 70 36"><title>ring_style</title><g id="d5704673-73b7-4126-af48-358b41c5d297" data-name="3-Stone"><path d="M14,20.84H7.62A1.54,1.54,0,0,1,6,19.36V16.64a1.54,1.54,0,0,1,1.58-1.48H14v5.69Z" fill="none" stroke="#4a4a4a" stroke-linecap="round" stroke-linejoin="round" stroke-width="0.5"/><g id="0b5dcee1-d331-45ba-89ff-23ee916c95d0" data-name="Round"><g id="b5f28875-a323-4115-b97e-a7137c05ecfd" data-name="Diamond"><polygon points="39.59 18 38.24 14.78 34.99 13.46 31.75 14.81 30.43 18.05 31.79 21.27 35.04 22.59 38.27 21.24 39.59 18" fill="none" stroke="#4a4a4a" stroke-width="0.5"/><path d="M32,25.4A8,8,0,1,1,42.42,21,8,8,0,0,1,32,25.4Z" fill="none" stroke="#4a4a4a" stroke-width="0.5"/><line x1="35.01" y1="10.05" x2="34.99" y2="13.45" fill="none" stroke="#4a4a4a" stroke-width="0.5"/><line x1="38.24" y1="14.78" x2="40.74" y2="12.47" fill="none" stroke="#4a4a4a" stroke-width="0.5"/><line x1="39.6" y1="18" x2="43.01" y2="17.9" fill="none" stroke="#4a4a4a" stroke-width="0.5"/><line x1="35.04" y1="22.59" x2="34.99" y2="25.99" fill="none" stroke="#4a4a4a" stroke-width="0.5"/><line x1="31.79" y1="21.27" x2="29.33" y2="23.64" fill="none" stroke="#4a4a4a" stroke-width="0.5"/><line x1="30.43" y1="18.05" x2="27.01" y2="18.02" fill="none" stroke="#4a4a4a" stroke-width="0.5"/><line x1="31.75" y1="14.81" x2="29.33" y2="12.41" fill="none" stroke="#4a4a4a" stroke-width="0.5"/><line x1="38.27" y1="21.24" x2="40.74" y2="23.59" fill="none" stroke="#4a4a4a" stroke-width="0.5"/></g></g><g id="46b56c21-9a4e-49aa-8973-98362e2f1509" data-name="Round"><g id="f7a10bc0-6db9-4ee7-b97b-72aaca7dae87" data-name="Diamond"><polygon points="53.22 18 52.12 15.38 49.48 14.31 46.86 15.41 45.78 18.04 46.88 20.66 49.52 21.73 52.14 20.63 53.22 18" fill="none" stroke="#4a4a4a" stroke-width="0.5"/><path d="M47.05,24a6.48,6.48,0,1,1,8.46-3.55A6.47,6.47,0,0,1,47.05,24Z" fill="none" stroke="#4a4a4a" stroke-width="0.5"/><line x1="49.5" y1="11.54" x2="49.48" y2="14.31" fill="none" stroke="#4a4a4a" stroke-width="0.5"/><line x1="52.11" y1="15.38" x2="54.15" y2="13.5" fill="none" stroke="#4a4a4a" stroke-width="0.5"/><line x1="53.22" y1="18" x2="55.99" y2="17.92" fill="none" stroke="#4a4a4a" stroke-width="0.5"/><line x1="49.52" y1="21.73" x2="49.48" y2="24.49" fill="none" stroke="#4a4a4a" stroke-width="0.5"/><line x1="46.89" y1="20.66" x2="44.89" y2="22.58" fill="none" stroke="#4a4a4a" stroke-width="0.5"/><line x1="45.78" y1="18.04" x2="43.01" y2="18.02" fill="none" stroke="#4a4a4a" stroke-width="0.5"/><line x1="46.86" y1="15.41" x2="44.89" y2="13.46" fill="none" stroke="#4a4a4a" stroke-width="0.5"/><line x1="52.14" y1="20.63" x2="54.15" y2="22.54" fill="none" stroke="#4a4a4a" stroke-width="0.5"/></g></g><g id="d314dcaa-771c-43ab-90d6-9270ebf47358" data-name="Round"><g id="00fb3923-159f-4307-993d-59b1f779acaf" data-name="Diamond"><polygon points="24.24 18 23.13 15.38 20.49 14.31 17.86 15.41 16.79 18.04 17.89 20.66 20.53 21.73 23.16 20.63 24.24 18" fill="none" stroke="#4a4a4a" stroke-width="0.5"/><path d="M18.06,24a6.48,6.48,0,1,1,8.47-3.55A6.47,6.47,0,0,1,18.06,24Z" fill="none" stroke="#4a4a4a" stroke-width="0.5"/><line x1="20.51" y1="11.54" x2="20.49" y2="14.31" fill="none" stroke="#4a4a4a" stroke-width="0.5"/><line x1="23.13" y1="15.38" x2="25.17" y2="13.5" fill="none" stroke="#4a4a4a" stroke-width="0.5"/><line x1="24.24" y1="18" x2="27.01" y2="17.92" fill="none" stroke="#4a4a4a" stroke-width="0.5"/><line x1="20.53" y1="21.73" x2="20.49" y2="24.49" fill="none" stroke="#4a4a4a" stroke-width="0.5"/><line x1="17.89" y1="20.66" x2="15.9" y2="22.58" fill="none" stroke="#4a4a4a" stroke-width="0.5"/><line x1="16.79" y1="18.04" x2="14.01" y2="18.02" fill="none" stroke="#4a4a4a" stroke-width="0.5"/><line x1="17.86" y1="15.41" x2="15.9" y2="13.46" fill="none" stroke="#4a4a4a" stroke-width="0.5"/><line x1="23.16" y1="20.63" x2="25.17" y2="22.54" fill="none" stroke="#4a4a4a" stroke-width="0.5"/></g></g><path d="M56,20.84h6.39A1.54,1.54,0,0,0,64,19.36V16.64a1.54,1.54,0,0,0-1.58-1.48H56v5.69Z" fill="none" stroke="#4a4a4a" stroke-linecap="round" stroke-linejoin="round" stroke-width="0.5"/></g></svg>