<svg id="a8ed12e7-cf60-4f9a-8cd5-e637b5145f5f" data-name="Layer 1" xmlns="http://www.w3.org/2000/svg" viewBox="0 0 70 37"><title>ring_style</title><g id="c8dc23ba-5103-4442-8c7d-5a07a584d1df" data-name="Sidestone"><rect x="45.71" y="15.32" width="18.29" height="5.35" rx="1.48" ry="1.48" fill="none" stroke="#4a4a4a" stroke-miterlimit="10" stroke-width="0.5"/><rect x="6" y="15.32" width="18.29" height="5.35" rx="1.48" ry="1.48" fill="none" stroke="#4a4a4a" stroke-miterlimit="10" stroke-width="0.5"/><g id="32e0a293-4ec7-4e2e-bcba-92cee2de61eb" data-name="Round"><g id="01a303a7-cdd3-4c70-96c8-57f5af662dd3" data-name="Diamond"><polygon points="41.14 18 39.32 13.69 34.97 11.92 30.64 13.73 28.86 18.07 30.68 22.38 35.03 24.15 39.36 22.34 41.14 18" fill="none" stroke="#4a4a4a" stroke-width="0.5"/><path d="M31,27.91a10.67,10.67,0,1,1,14-5.84A10.66,10.66,0,0,1,31,27.91Z" fill="none" stroke="#4a4a4a" stroke-width="0.5"/><line x1="35" y1="7.37" x2="34.97" y2="11.92" fill="none" stroke="#4a4a4a" stroke-width="0.5"/><line x1="39.32" y1="13.69" x2="42.67" y2="10.6" fill="none" stroke="#4a4a4a" stroke-width="0.5"/><line x1="41.14" y1="18" x2="45.71" y2="17.87" fill="none" stroke="#4a4a4a" stroke-width="0.5"/><line x1="35.04" y1="24.15" x2="34.97" y2="28.7" fill="none" stroke="#4a4a4a" stroke-width="0.5"/><line x1="30.68" y1="22.38" x2="27.4" y2="25.55" fill="none" stroke="#4a4a4a" stroke-width="0.5"/><line x1="28.86" y1="18.07" x2="24.29" y2="18.04" fill="none" stroke="#4a4a4a" stroke-width="0.5"/><line x1="30.64" y1="13.73" x2="27.4" y2="10.52" fill="none" stroke="#4a4a4a" stroke-width="0.5"/><line x1="39.36" y1="22.34" x2="42.67" y2="25.48" fill="none" stroke="#4a4a4a" stroke-width="0.5"/></g></g><path d="M21.85,20.17a2.15,2.15,0,0,1-2.14-2.07V18a2.18,2.18,0,0,1,2.14-2.11,2.12,2.12,0,0,1,2.14,2v.17A2.15,2.15,0,0,1,21.85,20.17Z" fill="none" stroke="#4a4a4a" stroke-width="0.5"/><path d="M17,20.22a2.15,2.15,0,0,1-2.14-2.07V18A2.18,2.18,0,0,1,17,15.93a2.12,2.12,0,0,1,2.14,2v.17A2.15,2.15,0,0,1,17,20.22Z" fill="none" stroke="#4a4a4a" stroke-width="0.5"/><path d="M12.17,20.22A2.15,2.15,0,0,1,10,18.14V18a2.18,2.18,0,0,1,2.14-2.11,2.12,2.12,0,0,1,2.14,2v.17A2.15,2.15,0,0,1,12.17,20.22Z" fill="none" stroke="#4a4a4a" stroke-width="0.5"/><path d="M57.83,20.19a2.15,2.15,0,0,1-2.14-2.07V18a2.18,2.18,0,0,1,2.14-2.11,2.12,2.12,0,0,1,2.14,2v.17A2.15,2.15,0,0,1,57.83,20.19Z" fill="none" stroke="#4a4a4a" stroke-width="0.5"/><path d="M53,20.24a2.15,2.15,0,0,1-2.14-2.07v-.1A2.18,2.18,0,0,1,53,16a2.12,2.12,0,0,1,2.14,2v.17A2.15,2.15,0,0,1,53,20.24Z" fill="none" stroke="#4a4a4a" stroke-width="0.5"/><path d="M48.14,20.24A2.15,2.15,0,0,1,46,18.17v-.1A2.18,2.18,0,0,1,48.14,16a2.12,2.12,0,0,1,2.14,2v.17A2.15,2.15,0,0,1,48.14,20.24Z" fill="none" stroke="#4a4a4a" stroke-width="0.5"/></g></svg>