<svg id="c4a11367-e591-405a-b8a9-18ac0b9ca157" data-name="Layer 1" xmlns="http://www.w3.org/2000/svg" viewBox="0 0 70 36"><title>ring_style</title><g id="328a9c31-873d-4777-a70c-77a4378f03e7" data-name="Vintage"><rect x="45.82" y="15.32" width="18.18" height="5.35" rx="1.48" ry="1.48" fill="#fff" stroke="#4a4a4a" stroke-miterlimit="10" stroke-width="0.5"/><rect x="6.04" y="15.32" width="18.26" height="5.35" rx="1.48" ry="1.48" fill="#fff" stroke="#4a4a4a" stroke-miterlimit="10" stroke-width="0.5"/><g id="3c156716-6754-44c8-944f-0bb96e98f56c" data-name="Round"><g id="2d929d1e-2277-4b8e-94ea-ac3ac8ca5be7" data-name="Diamond"><polygon points="41.16 18 39.34 13.69 34.99 11.92 30.67 13.73 28.89 18.07 30.71 22.38 35.06 24.15 39.39 22.34 41.16 18" fill="none" stroke="#4a4a4a" stroke-width="0.5"/><path d="M31,27.91a10.67,10.67,0,1,1,14-5.84A10.66,10.66,0,0,1,31,27.91Z" fill="none" stroke="#4a4a4a" stroke-width="0.5"/><line x1="35.03" y1="7.37" x2="34.99" y2="11.92" fill="none" stroke="#4a4a4a" stroke-width="0.5"/><line x1="39.34" y1="13.69" x2="42.7" y2="10.6" fill="none" stroke="#4a4a4a" stroke-width="0.5"/><line x1="41.16" y1="18" x2="45.74" y2="17.87" fill="none" stroke="#4a4a4a" stroke-width="0.5"/><line x1="35.06" y1="24.15" x2="34.99" y2="28.7" fill="none" stroke="#4a4a4a" stroke-width="0.5"/><line x1="30.71" y1="22.38" x2="27.42" y2="25.55" fill="none" stroke="#4a4a4a" stroke-width="0.5"/><line x1="28.89" y1="18.07" x2="24.32" y2="18.04" fill="none" stroke="#4a4a4a" stroke-width="0.5"/><line x1="30.67" y1="13.73" x2="27.42" y2="10.52" fill="none" stroke="#4a4a4a" stroke-width="0.5"/><line x1="39.39" y1="22.34" x2="42.7" y2="25.48" fill="none" stroke="#4a4a4a" stroke-width="0.5"/></g></g><path d="M53,17.89a5.82,5.82,0,0,1-3.64,1.67,5.82,5.82,0,0,1-3.64-1.67,5.82,5.82,0,0,1,3.64-1.67A5.82,5.82,0,0,1,53,17.89Z" fill="none" stroke="#4a4a4a" stroke-linecap="round" stroke-linejoin="round" stroke-width="0.5"/><ellipse cx="54.87" cy="17.93" rx="1.86" ry="1.67" fill="none" stroke="#4a4a4a" stroke-miterlimit="10" stroke-width="0.5"/><path d="M64,17.89a5.82,5.82,0,0,1-3.64,1.67,5.82,5.82,0,0,1-3.64-1.67,5.82,5.82,0,0,1,3.64-1.67A5.82,5.82,0,0,1,64,17.89Z" fill="none" stroke="#4a4a4a" stroke-linecap="round" stroke-linejoin="round" stroke-width="0.5"/><path d="M13.31,18a5.86,5.86,0,0,1-3.65,1.67A5.86,5.86,0,0,1,6,18a5.86,5.86,0,0,1,3.65-1.67A5.86,5.86,0,0,1,13.31,18Z" fill="none" stroke="#4a4a4a" stroke-linecap="round" stroke-linejoin="round" stroke-width="0.5"/><ellipse cx="15.17" cy="18.04" rx="1.87" ry="1.67" fill="none" stroke="#4a4a4a" stroke-miterlimit="10" stroke-width="0.5"/><path d="M24.34,18a5.86,5.86,0,0,1-3.65,1.67A5.86,5.86,0,0,1,17,18a5.86,5.86,0,0,1,3.65-1.67A5.86,5.86,0,0,1,24.34,18Z" fill="none" stroke="#4a4a4a" stroke-linecap="round" stroke-linejoin="round" stroke-width="0.5"/></g></svg>