<svg width="36" height="36" viewBox="0 0 80 80" fill="none" xmlns="http://www.w3.org/2000/svg">
<path d="M40.5228 1.00299C38.2073 0.974994 35.8868 1.14372 33.6674 1.51075C25.3273 2.89003 18.0627 6.6772 12.0864 12.7596C10.0517 14.8304 8.75185 16.4441 7.25508 18.7595C3.29651 24.8831 1.20101 31.6598 1.01352 38.9436C0.810419 46.8337 2.89912 54.3999 7.08646 60.9281C12.727 69.7217 21.5828 75.9361 31.5899 78.1136C33.0788 78.4378 35.7529 78.8498 37.0878 78.9576C37.088 78.9576 37.0881 78.9575 37.0886 78.9576C37.0975 78.9576 37.1287 78.9576 37.1384 78.9576C38.6162 79.0697 43.3109 78.9446 44.7671 78.7555H44.7679C53.6421 77.5946 61.3096 73.8352 67.5924 67.5631C73.7922 61.3736 77.531 53.738 78.7763 44.7433C79.0734 42.5981 79.0749 37.3772 78.7788 35.2234C78.4988 33.1828 78.0066 30.7738 77.5366 29.1591C73.4292 15.0472 61.7757 4.43857 47.346 1.67631C45.1488 1.2557 42.8382 1.03101 40.5227 1.00299H40.5228ZM42.0217 2.64444C44.8634 2.81411 47.9155 3.32041 50.536 4.07848C51.2243 4.27756 52.2008 4.60704 53.0036 4.89981C53.3788 5.03665 53.7027 5.16176 53.9534 5.26438C53.8821 5.44948 53.807 5.64397 53.6944 5.92015C53.4034 6.63441 52.9909 7.61176 52.5298 8.67413C52.0681 9.7382 51.6398 10.7107 51.3228 11.4184C51.248 11.5852 51.2039 11.6789 51.1426 11.8139C51.0246 11.6999 50.9405 11.6205 50.7908 11.4742C50.1917 10.8884 49.3557 10.0592 48.4009 9.10482C46.4914 7.19611 44.1062 4.78518 42.1751 2.80218L42.0217 2.64444ZM37.9558 2.65338L36.5365 4.05404C35.1081 5.46358 32.8442 7.69448 31.5068 9.01119C29.7842 10.7072 29.0069 11.469 28.5638 11.8731C28.4762 11.6742 28.3846 11.4647 28.2641 11.1883C27.9562 10.4815 27.5597 9.56483 27.1668 8.65207C26.774 7.73933 26.3847 6.83025 26.0914 6.14014C25.9615 5.83456 25.8599 5.59389 25.776 5.3934C26.0527 5.26124 26.4721 5.08858 26.9788 4.90325C28.0126 4.52515 29.3886 4.09311 30.6595 3.76951C33.1444 3.13676 35.3756 2.80513 37.9558 2.65338ZM40.0012 2.90025L45.0672 8.01514C46.5793 9.54203 47.9536 10.9388 48.9487 11.958C49.3922 12.4123 49.7268 12.7588 49.9974 13.0403C49.7817 13.1486 49.5831 13.2492 49.2786 13.3987C48.3856 13.8375 47.1508 14.4334 45.7933 15.0797C43.0747 16.374 40.5432 17.5778 40.1898 17.7439L39.7931 17.9301L39.0634 17.5825C37.7851 16.9725 35.4891 15.8658 32.4349 14.3881C31.1943 13.7879 30.1244 13.2803 29.6762 13.0785C29.68 13.0732 29.6825 13.0724 29.6864 13.067C30.0276 12.7184 30.5021 12.2438 31.0239 11.7319C32.0734 10.7022 34.6211 8.19667 36.6868 6.16268L40.0011 2.89977L40.0012 2.90025ZM55.4802 5.9157C55.5235 5.93113 55.5187 5.92461 55.573 5.94723C55.9744 6.11281 56.6667 6.46175 57.713 7.02458C60.416 8.47876 63.3075 10.5408 65.4073 12.4913L59.3313 12.4947L52.6221 12.4982L52.6421 12.451C53.2315 11.0693 53.9653 9.37057 54.5618 8.00154C54.8601 7.31702 55.1242 6.71503 55.3182 6.27694C55.3855 6.1252 55.4314 6.02333 55.4802 5.9148L55.4802 5.9157ZM24.2832 6.01822C24.296 6.04482 24.3067 6.05756 24.3184 6.08556C24.4625 6.43018 25.1925 8.11769 25.961 9.88346C26.345 10.7659 26.7006 11.5839 26.9642 12.1904C27.0306 12.3432 27.0219 12.3236 27.0771 12.4506C26.8886 12.4567 26.7868 12.4661 26.5045 12.4712C25.3932 12.4913 23.5215 12.4973 20.5431 12.4954L14.6406 12.492C16.3577 10.917 18.4049 9.3465 20.3308 8.16505C21.0162 7.74461 22.0776 7.15325 22.9846 6.67404C23.438 6.43443 23.8546 6.22179 24.1637 6.07291C24.2139 6.04882 24.2391 6.0389 24.2832 6.01827L24.2832 6.01822ZM13.4979 14.0745H20.4479C22.5286 14.0745 24.4208 14.0823 25.7905 14.0927C26.3856 14.0979 26.8283 14.103 27.1978 14.1096C27.0671 14.5405 26.8919 15.1097 26.6968 15.7371C26.2954 17.0276 25.8543 18.4536 25.7135 18.9151C25.245 20.4515 24.8074 21.8512 24.4773 22.8769C24.3123 23.3897 24.174 23.8096 24.0734 24.1028C24.0304 24.2277 23.9981 24.3162 23.9708 24.3897C23.8895 24.4268 23.754 24.4839 23.4789 24.5862C22.867 24.8137 21.7081 25.2204 19.5247 25.9839C17.8523 26.5687 15.6505 27.3422 14.6285 27.7036C14.2042 27.8536 13.8459 27.9784 13.527 28.0888C13.5219 27.7117 13.5168 27.2671 13.5131 26.6657C13.5042 25.2638 13.4979 23.328 13.4979 21.199V14.0745L13.4979 14.0745ZM59.2997 14.0745H66.305V16.6902C66.305 18.478 66.3381 21.9119 66.3783 24.3352C66.4001 25.6483 66.4086 26.7447 66.4038 27.5059C66.4028 27.6742 66.3987 27.7565 66.3962 27.8905C66.0788 27.7876 65.7091 27.6666 65.2346 27.5083C64.1335 27.141 62.6878 26.6507 61.2476 26.158C59.8075 25.6653 58.3723 25.1697 57.2922 24.7908C56.7522 24.6013 56.3005 24.4408 55.9838 24.3255C55.8687 24.2835 55.7947 24.2553 55.7188 24.2266C55.7086 24.2003 55.7035 24.1881 55.6922 24.1569C55.6227 23.9676 55.5273 23.6928 55.4143 23.358C55.1885 22.6884 54.8928 21.7769 54.5834 20.7914C53.8394 18.4225 53.2599 16.5694 52.8668 15.3017C52.7045 14.7785 52.595 14.4205 52.498 14.1024C52.8708 14.0972 53.3171 14.0922 53.9167 14.0886C55.297 14.0796 57.2032 14.0745 59.2994 14.0745H59.2997ZM28.7821 14.4245C29.0304 14.5377 29.3087 14.6664 29.6429 14.8261C32.8349 16.351 35.1417 17.4569 36.6584 18.1891C37.185 18.4432 37.4944 18.5947 37.8339 18.7605C37.0899 19.065 34.6447 20.0654 31.3922 21.395C29.604 22.126 27.9667 22.7905 26.7702 23.2718C26.4115 23.4161 26.1863 23.5052 25.9149 23.6133C25.9522 23.4954 25.9746 23.4268 26.0168 23.293C26.2907 22.4243 26.6615 21.2386 27.0631 19.9446C27.9417 17.1136 28.418 15.5803 28.6778 14.7521C28.732 14.5789 28.745 14.5413 28.7821 14.4245H28.7821ZM50.9109 14.4297C50.9892 14.6745 51.0733 14.9362 51.1875 15.296C51.4761 16.2053 51.861 17.4255 52.2538 18.6729C52.947 20.8738 53.5378 22.7663 53.7842 23.57C52.9349 23.2294 51.1265 22.5053 47.9248 21.2237C45.9948 20.4511 44.2155 19.7372 42.9036 19.2103C42.4343 19.0219 42.1098 18.8915 41.7748 18.7566C42.3889 18.4667 43.3472 18.0117 44.5353 17.4433C46.7407 16.3881 48.4892 15.5581 49.6875 14.9963C50.2219 14.7457 50.6053 14.5688 50.9109 14.4297ZM67.8887 15.057C69.4023 16.7512 70.9999 18.8651 72.1935 20.8524C72.5528 21.4506 73.0724 22.4102 73.5255 23.2958C73.9433 24.1125 74.2707 24.8219 74.3941 25.1326C74.3907 25.1335 74.3907 25.1335 74.3852 25.1352C74.1937 25.2125 73.9353 25.3184 73.627 25.4458C73.0103 25.7005 72.1944 26.0407 71.3269 26.406C69.7487 27.0708 68.4349 27.6176 67.989 27.7995V25.4197C67.989 23.5984 67.9613 20.1522 67.9271 17.7498L67.8882 15.0565L67.8887 15.057ZM11.9202 15.2996L11.9215 20.6607H11.9209V21.2819C11.9215 23.3886 11.9196 25.3038 11.9146 26.691C11.9133 27.2385 11.9107 27.6253 11.9082 27.9873C11.8805 27.9746 11.8685 27.9694 11.8397 27.9564C11.2713 27.699 10.4904 27.3441 9.63485 26.9543C7.9213 26.1733 6.21754 25.4059 5.78618 25.2224L5.62362 25.1532C5.93388 24.3742 7.0868 22.1106 7.81819 20.8791C8.91394 19.0342 10.343 17.1274 11.9198 15.2996H11.9202ZM39.7659 19.6993C39.7837 19.7053 39.7934 19.7095 39.8161 19.7175C39.922 19.7567 40.0775 19.8161 40.2753 19.8922C40.671 20.0445 41.2355 20.2648 41.9252 20.5364C43.3045 21.0794 45.1857 21.827 47.2345 22.6474L54.4435 25.5342L57.1494 32.1861C58.6924 35.9792 60.053 39.3278 60.1531 39.5776L60.2568 39.8367L59.9323 40.5961C59.6965 41.148 58.2924 44.4511 56.8085 47.944L54.2093 54.0615L48.4894 56.4449C45.2153 57.8094 41.8349 59.2153 40.9849 59.5658L39.6669 60.1092L36.1512 58.674C31.3839 56.7282 28.5918 55.5861 26.9811 54.918C26.1758 54.5839 25.6653 54.368 25.3562 54.2319C25.2296 54.1756 25.1571 54.1427 25.0953 54.1135C25.0802 54.0831 25.0696 54.0615 25.0499 54.0192C24.9742 53.8584 24.8683 53.6255 24.7429 53.3416C24.4923 52.7739 24.1618 52.0019 23.8131 51.1682C23.1127 49.4937 21.7545 46.2572 20.7948 43.9745C20.3156 42.8349 19.8803 41.7863 19.5653 41.0168C19.4078 40.632 19.2803 40.3168 19.1935 40.0971C19.17 40.0373 19.1578 40.0067 19.1407 39.9618C19.1807 39.8625 19.2313 39.7401 19.3015 39.5707C19.4607 39.1867 19.6917 38.6358 19.9772 37.9606C20.5482 36.6102 21.3364 34.7614 22.2033 32.7414L25.2561 25.6272L26.1672 25.256C29.0655 24.0747 36.3706 21.0866 37.3753 20.6713C38.4827 20.2135 39.12 19.9533 39.4825 19.816C39.8171 19.6892 39.845 19.7055 39.7658 19.6994L39.7659 19.6993ZM56.4901 26.2791C56.6923 26.3442 56.8349 26.3893 57.0785 26.4684C58.1417 26.8139 59.5585 27.2801 60.9763 27.7501C62.394 28.2201 63.8135 28.6941 64.8826 29.0555C65.3497 29.2134 65.7114 29.3377 66.0144 29.4425C65.9886 29.4896 65.9761 29.5138 65.9477 29.566C65.6949 30.0306 65.3416 30.6734 64.9481 31.3847C64.161 32.8072 63.2131 34.5059 62.5855 35.6096C62.3217 36.0736 61.7911 37.029 61.399 37.7455C61.3443 37.8461 61.3063 37.9078 61.2541 38.0015C61.2464 37.9833 61.2426 37.9772 61.2352 37.9581C60.9385 37.2557 60.5359 36.2825 60.1009 35.2121C59.2292 33.0666 57.9514 29.9216 57.261 28.2228C56.9551 27.4701 56.6994 26.8205 56.49 26.2792L56.4901 26.2791ZM23.1659 26.4144C23.1032 26.5657 23.0905 26.6036 23.0088 26.7977C22.4722 28.0733 21.5071 30.3245 19.8262 34.2305C19.2439 35.5835 18.7101 36.8177 18.3201 37.7153C18.2596 37.8545 18.2289 37.9238 18.1757 38.0459C18.126 37.9517 18.1073 37.9199 18.0508 37.8125C17.5609 36.8814 16.8092 35.4267 15.7507 33.3642C15.1873 32.2665 14.4561 30.858 14.1202 30.2232C14.0083 30.0117 13.9274 29.8474 13.8424 29.6767C14.1435 29.5659 14.521 29.4303 14.9973 29.2605C16.0461 28.8868 17.438 28.397 18.8284 27.9114C20.2188 27.4259 21.6077 26.945 22.6504 26.5885C22.8637 26.5155 22.9846 26.4759 23.166 26.4144H23.1659ZM75.0055 26.6036C75.112 26.9262 75.2588 27.3654 75.506 28.0935C76.5996 31.3144 77.1588 34.2463 77.3991 37.9556C77.2316 37.792 77.1216 37.6858 76.9205 37.4885C75.9625 36.5488 74.6478 35.2515 73.2083 33.8246L68.622 29.2794C68.9862 29.1223 69.5043 28.9001 70.0954 28.6521C70.8262 28.3455 72.3154 27.7183 73.4066 27.2569C73.9482 27.028 74.4556 26.8198 74.8327 26.6704C74.9048 26.6419 74.9439 26.6275 75.0055 26.6036ZM5.03869 26.6486C5.22687 26.7301 5.42025 26.8141 5.68772 26.9319C6.39153 27.2419 7.32414 27.6576 8.25774 28.076C9.19133 28.4943 10.1267 28.9159 10.835 29.2387C11.0241 29.3253 11.1432 29.3805 11.2954 29.4505C11.1288 29.6208 11.0158 29.7394 10.7246 30.0298C9.77269 30.9792 8.08906 32.6366 5.20186 35.4716C3.99313 36.6586 3.17624 37.4476 2.63062 37.972C2.7796 35.6134 3.11299 33.2323 3.60113 31.192C3.77149 30.48 4.16874 29.1764 4.53524 28.0765C4.71849 27.5265 4.89537 27.0233 5.0308 26.668C5.03462 26.6591 5.03592 26.6566 5.03843 26.6487L5.03869 26.6486ZM67.3889 30.3549C67.6603 30.6166 68.0032 30.9495 68.4479 31.3843C69.4262 32.3405 70.7677 33.6608 72.2354 35.1132L77.1261 39.9526L72.2396 44.74C70.7726 46.177 69.4309 47.4836 68.4522 48.4298C68.0123 48.8553 67.6755 49.1781 67.4047 49.4362C67.2541 49.176 67.0889 48.8903 66.8685 48.5021C66.3225 47.5408 65.6003 46.254 64.8783 44.9602C64.1563 43.6663 63.4344 42.3646 62.8906 41.3726C62.6187 40.8767 62.3913 40.4579 62.2313 40.1583C62.1671 40.0386 62.1235 39.9533 62.0833 39.8756C62.0846 39.8756 62.0845 39.8755 62.0858 39.8625C62.1561 39.7062 62.2855 39.4479 62.48 39.0818C62.8691 38.3497 63.521 37.1781 64.5327 35.3865C65.1514 34.2906 66.1268 32.5606 66.7005 31.5412C66.9624 31.0758 67.1975 30.6714 67.3884 30.3498L67.3889 30.3549ZM12.4904 30.58C12.5115 30.6183 12.5218 30.6348 12.5444 30.6768C12.7993 31.1468 13.1437 31.801 13.5124 32.5202C14.2543 33.967 15.4541 36.2947 16.1801 37.6959L17.3526 39.9584L14.8815 44.8464C14.1634 46.267 13.5022 47.5588 13.0163 48.4933C12.8362 48.8394 12.7109 49.0754 12.5856 49.311C12.4758 49.2078 12.3981 49.1354 12.2587 49.0028C11.6988 48.4709 10.9123 47.7165 9.99677 46.8336C8.16578 45.0677 5.8171 42.7872 3.7176 40.7307L2.92056 39.9499L4.49279 38.4037C7.82561 35.1262 9.95321 33.0384 11.2548 31.7717C11.8386 31.2034 12.2069 30.8489 12.4904 30.5797L12.4904 30.58ZM61.2165 41.6918C61.3433 41.9156 61.4511 42.105 61.6132 42.3936C62.1539 43.3566 62.8641 44.6312 63.5693 45.9029C64.2746 47.1744 64.9752 48.4432 65.4964 49.3949C65.7102 49.7854 65.8679 50.0764 66.0089 50.3377C65.89 50.3767 65.8081 50.4035 65.662 50.4522C65.0272 50.6606 64.1544 50.9451 63.1975 51.2553C61.3134 51.8664 58.7867 52.6909 57.4837 53.1195H57.4812L57.3865 53.1516C56.9187 53.3056 56.5424 53.4264 56.1698 53.5465C56.2653 53.3205 56.3479 53.1246 56.4737 52.8278C56.8772 51.8747 57.4208 50.5939 58.004 49.2213C59.1704 46.4764 60.4954 43.3644 61.1751 41.7778C61.1907 41.7405 61.2005 41.7266 61.2158 41.6928L61.2165 41.6918ZM2.6282 41.8901C2.913 42.1665 3.19502 42.4426 3.65632 42.8916C6.25614 45.4223 8.99278 48.0833 10.593 49.6377C10.9366 49.9714 11.2306 50.2643 11.4725 50.5087C11.2222 50.6481 10.98 50.7826 10.4208 51.0813C9.17543 51.7466 8.88609 51.904 6.47079 53.2281C6.00164 53.4853 5.57318 53.7175 5.25281 53.8881C5.17016 53.6851 5.08419 53.4733 4.97621 53.1778C4.69312 52.4028 4.35075 51.3818 4.06636 50.4354C3.32049 47.9529 2.83573 45.0294 2.6282 41.8901ZM18.1842 41.9031C18.3607 42.3166 18.5428 42.7435 18.7889 43.325C19.4343 44.8495 20.2718 46.8403 21.0569 48.7177C21.3629 49.4493 22.0302 51.0372 22.5406 52.2488C22.73 52.6985 22.8798 53.0644 23.0264 53.4225C22.4352 53.2106 20.0371 52.367 17.6692 51.5377C16.4845 51.1228 15.4036 50.7417 14.617 50.4622C14.3431 50.3654 14.1602 50.299 13.9661 50.2293C14.0844 49.9864 14.2149 49.7194 14.3998 49.3473C14.8566 48.428 15.4929 47.1621 16.1971 45.7745C16.9012 44.3868 17.546 43.1294 18.0162 42.2234C18.0867 42.0873 18.1219 42.0225 18.1842 41.9031ZM77.3936 41.9473C77.1334 46.017 76.4844 49.1838 75.1099 52.9977C74.9937 53.3201 74.8828 53.5887 74.7854 53.8148C74.6468 53.7464 74.5111 53.6799 74.3492 53.5929C73.8452 53.3221 72.2009 52.4692 70.6643 51.6809C69.8996 51.2885 69.2038 50.9245 68.7027 50.6564C68.6522 50.6295 68.6309 50.6165 68.5844 50.5914C68.619 50.5558 68.6348 50.5393 68.6724 50.5009C69.0648 50.1037 69.6091 49.5614 70.2076 48.9729C74.2326 45.0153 76.6361 42.6719 77.3936 41.9473H77.3936ZM13.6422 51.8452C13.9049 51.9343 14.1649 52.0219 14.5351 52.1492C15.5481 52.4971 16.9012 52.9669 18.2643 53.443C19.6273 53.9192 21.0006 54.4013 22.0535 54.7752C22.5799 54.962 23.0264 55.1222 23.3503 55.2397C23.5123 55.2986 23.6437 55.3468 23.7373 55.3818C23.7735 55.3956 23.7597 55.3947 23.787 55.4008C23.8377 55.4976 23.9329 55.7245 24.0684 56.1082C24.3396 56.8752 24.7849 58.2773 25.5673 60.7802C26.0474 62.3164 26.484 63.7219 26.8004 64.7486C26.9209 65.1396 27.0048 65.414 27.0861 65.6809C26.7204 65.6939 26.2822 65.6974 25.6922 65.7034C24.3325 65.719 22.4533 65.7277 20.3866 65.7277H13.4917L13.5615 58.6922C13.5825 56.5854 13.6044 54.6672 13.6221 53.2742C13.6298 52.6722 13.6363 52.2237 13.6421 51.8456L13.6422 51.8452ZM66.3808 51.9356C66.3871 52.3188 66.3939 52.7832 66.402 53.4006C66.4204 54.804 66.442 56.7368 66.4633 58.8587L66.5342 65.9494H59.3622C57.2191 65.9494 55.2702 65.9363 53.86 65.9251C53.2288 65.9251 52.7514 65.9112 52.3685 65.9025C52.3761 65.8757 52.3787 65.8644 52.3867 65.8376C52.5255 65.3536 52.7172 64.6951 52.9283 63.9813C53.3518 62.5493 54.1048 59.9807 54.6025 58.2702L55.4146 55.478L61.1267 53.6231C62.7825 53.0852 64.2902 52.5996 65.3848 52.2509C65.8049 52.1171 66.098 52.0253 66.3808 51.9367L66.3808 51.9356ZM12.0348 52.0285L11.9694 58.5775C11.9486 60.6669 11.927 62.5699 11.9088 63.952C11.9049 64.2534 11.9024 64.4188 11.8986 64.6672C11.4854 64.1945 11.0268 63.6628 10.6951 63.2496C9.79601 62.1295 8.73194 60.5903 7.89401 59.1938C7.56949 58.6528 7.01263 57.6176 6.54683 56.7103C6.31393 56.2568 6.1021 55.8327 5.95179 55.5166C5.92607 55.4629 5.91486 55.4352 5.89295 55.3873C6.03023 55.3024 6.14951 55.2267 6.45947 55.0525C7.32386 54.5669 8.93618 53.6957 11.8779 52.1129L12.035 52.0288L12.0348 52.0285ZM67.9706 52.0848L68.3036 52.2609C69.005 52.6315 70.7139 53.5166 72.114 54.2341C72.8128 54.5921 73.4512 54.9203 73.9168 55.1604C74.0293 55.2193 74.0941 55.2521 74.1849 55.2994C74.1091 55.4659 74.0337 55.633 73.9246 55.8585C73.6259 56.4765 73.2319 57.2523 72.8923 57.8779C72.0777 59.3783 70.5372 61.7108 69.4124 63.1445C69.036 63.6243 68.5195 64.2207 68.1077 64.6854L68.1052 63.0195C68.1026 61.212 68.0668 57.7824 68.0263 55.3854L67.9706 52.0848H67.9706ZM53.5816 56.08C53.0376 57.9265 51.4617 63.2942 51.0971 64.5439C50.9762 64.9583 50.8673 65.3079 50.7732 65.6005C50.4722 65.4547 50.094 65.2697 49.6207 65.0365C48.587 64.5271 47.2219 63.8491 45.863 63.1706C44.5042 62.4922 43.1515 61.8138 42.1418 61.3028C41.9288 61.1946 41.809 61.1331 41.6298 61.0419C41.778 60.9795 41.8678 60.9401 42.0399 60.8673C43.0077 60.4587 44.3318 59.9057 45.7757 59.3083C46.8098 58.8805 48.2524 58.2816 48.9832 57.9769C49.7127 57.6725 51.3178 57.0031 52.5505 56.4889C53.0428 56.2835 53.2725 56.2001 53.5816 56.08ZM25.8172 56.2202C26.4845 56.4754 27.3651 56.8192 28.3406 57.2069C30.367 58.0128 32.7187 58.9704 33.9628 59.5084C34.2667 59.6398 35.4659 60.1322 36.6833 60.6271C37.0826 60.7894 37.389 60.9161 37.7163 61.0511C37.0904 61.3469 35.9542 61.8914 34.9879 62.3601C33.9557 62.8607 32.6123 63.5084 32.0079 63.7966C31.3991 64.0868 30.2654 64.6291 29.4876 65.0019C29.1772 65.1506 28.9214 65.2719 28.6851 65.3834C28.6022 65.1254 28.5129 64.8459 28.3885 64.4523C28.077 63.4669 27.6507 62.1066 27.1857 60.6101C26.7202 59.1126 26.2916 57.7362 25.9755 56.7248C25.9098 56.5145 25.8725 56.3968 25.8172 56.2202ZM39.6967 61.9368C39.7828 61.975 39.8903 62.0247 40.0333 62.0921C40.3533 62.2422 40.7999 62.4564 41.3284 62.7126C42.3854 63.2252 43.7708 63.9061 45.1473 64.5881C46.5238 65.2702 47.8922 65.9536 48.9141 66.4711C49.3261 66.6798 49.629 66.8357 49.9052 66.9788C49.7723 67.1193 49.6629 67.2354 49.4849 67.421C48.8913 68.0401 48.0707 68.8861 47.1678 69.8069C45.3594 71.651 42.9096 74.1465 41.7244 75.353L40.0054 77.1024L34.7289 71.8801C33.1567 70.3242 31.7274 68.9015 30.6922 67.8639C30.225 67.3955 29.8698 67.0359 29.587 66.7484C29.6871 66.6972 29.7473 66.666 29.8661 66.6058C30.4874 66.2947 31.349 65.8737 32.296 65.4193C34.1953 64.5081 36.6635 63.3231 37.7818 62.7853C38.333 62.5203 38.8567 62.2826 39.2472 62.1169C39.4354 62.0363 39.5889 61.9762 39.6967 61.9368ZM20.4327 67.307C23.4107 67.307 25.2825 67.307 26.3941 67.3313C26.6844 67.3313 26.7918 67.3451 26.9831 67.352C26.3529 68.8807 24.3864 73.6356 24.2535 73.9501C24.0764 73.8695 23.8818 73.7809 23.6548 73.6675C20.0922 71.8881 16.9813 69.729 14.4708 67.3095H20.4327V67.307ZM52.5165 67.5248H59.216H65.3144C62.8679 69.8376 59.4665 72.1711 56.202 73.7491H56.1905C55.9393 73.8701 55.7238 73.9694 55.5281 74.0584C55.4647 73.9284 55.4107 73.8201 55.3274 73.6454C55.0543 73.0731 54.6871 72.2883 54.2974 71.447C53.6124 69.9683 52.9447 68.4894 52.5165 67.5119L52.5165 67.5248ZM28.4406 68.0021C28.7219 68.2645 29.0584 68.5827 29.507 69.0147C30.5391 70.0081 31.9544 71.3929 33.5012 72.9264L34.5597 73.9754L37.9795 77.3657C37.5629 77.344 37.3453 77.3448 36.1471 77.2316C33.8954 77.0183 31.1752 76.4658 28.9229 75.763C28.4065 75.6019 27.5023 75.285 26.7253 74.9994C26.3589 74.8647 26.0303 74.7399 25.7717 74.6384C25.8432 74.4436 25.9189 74.2385 26.0283 73.9541C26.3104 73.2207 26.6975 72.2422 27.0928 71.2608C27.4882 70.2794 27.8922 69.2942 28.2071 68.5457C28.301 68.3226 28.3654 68.1761 28.4406 68.0021ZM51.0601 68.1581C51.2543 68.5977 51.8966 70.0225 52.5559 71.4755C53.2258 72.9518 53.8796 74.393 54.028 74.7221L53.2971 74.9994C49.8752 76.2991 46.4263 77.0615 42.6731 77.3463C42.3703 77.3688 42.2772 77.3705 41.9956 77.3879C42.9007 76.4422 45.0353 74.2569 47.1969 72.0607C48.353 70.8859 49.4633 69.7615 50.2873 68.9317C50.6088 68.608 50.8405 68.3769 51.0601 68.1579V68.1581Z" fill="white" stroke="white" stroke-width="0.25"/>
</svg>
