<svg width="36" height="36" viewBox="0 0 38 38" fill="none" xmlns="http://www.w3.org/2000/svg">
<path fill-rule="evenodd" clip-rule="evenodd" d="M0 0H38L28.2764 38H9.36426L0 0ZM1.92503 0.950001L5.86519 4.19434H32.107L36.0648 0.950001H1.92503ZM36.5768 1.75525L33.0044 4.68362L25.498 33.2072L27.7107 36.4041L36.5768 1.75525ZM27.0079 37.05H10.7893L13.1122 33.8057H24.7624L27.0079 37.05ZM24.791 32.1857L31.7601 5.70361L28.8562 8.08407L23.3412 30.091L24.791 32.1857ZM22.4639 29.7099L27.8316 8.2901H10.1228L15.4906 29.7099H22.4639ZM14.6122 30.0866L9.09821 8.08348L6.59722 6.02422L12.9643 32.388L14.6122 30.0866ZM13.7924 32.8557H24.1049L22.5851 30.6599H15.3646L13.7924 32.8557ZM12.2384 33.4019L5.38546 5.02643L1.40235 1.74673L9.98025 36.5557L12.2384 33.4019ZM7.01892 5.14433L9.68565 7.34009H28.2694L30.9481 5.14433H7.01892Z" fill="white"/>
</svg>
