<svg width="36" height="36" viewBox="0 0 38 38" fill="none" xmlns="http://www.w3.org/2000/svg">
<path fill-rule="evenodd" clip-rule="evenodd" d="M19.2176 0L19.5235 0.240789C21.2901 1.6311 23.4798 3.69856 25.7266 6.24803L25.8997 6.13978L26.4403 6.9675L26.3822 7.00384C27.9147 8.79929 29.4574 10.8087 30.8951 12.9708C31.0531 13.2084 31.2099 13.448 31.3653 13.6894L31.5534 13.9661L31.7274 14.259C35.0957 19.6292 37.7446 25.8638 37.9905 32.0889L38 32.329L37.8121 32.4837C33.1188 36.3474 26.4551 38.264 19.1265 37.9707L19.0754 37.9981L19.0104 37.9659C12.9683 37.7052 6.47982 35.9442 0.274538 32.5362L0 32.3854L0.0191988 32.0779C0.452559 25.1367 2.09528 19.4554 5.18421 14.3594C8.27001 9.26864 12.781 4.79171 18.9051 0.23263L19.2176 0ZM20.9136 37.0161C23.9815 36.9856 26.8955 36.547 29.5495 35.7286C29.4492 35.1537 29.2128 34.1313 28.8643 32.7688L20.9136 37.0161ZM29.8279 32.4903C30.1539 33.7629 30.3902 34.7696 30.5111 35.4114C32.4518 34.7285 34.2389 33.834 35.8278 32.7397C33.7046 32.6404 31.72 32.5572 29.8279 32.4903ZM36.9143 30.9806C36.7284 28.861 36.2649 26.739 35.5931 24.6522L32.6411 26.0029L36.9143 30.9806ZM32.2662 25.09L35.276 23.7129C34.3812 21.1794 33.1913 18.7069 31.8321 16.3636L32.2662 25.09ZM30.6416 14.409C30.6735 14.4591 30.7055 14.5092 30.7373 14.5595L31.2245 24.3526L25.5433 17.7347C24.7057 15.086 23.8172 12.3923 22.9223 9.83864L30.6416 14.409ZM29.3779 12.5127C28.1332 10.7213 26.8259 9.04995 25.5294 7.5373L23.3145 8.9227L29.3779 12.5127ZM22.389 8.33574L24.872 6.78261C23.0871 4.76683 21.3467 3.06714 19.8444 1.78608C20.6633 3.69402 21.5249 5.93263 22.389 8.33574ZM17.9595 2.19664C16.1103 3.63659 14.4291 5.06959 12.9075 6.51812L15.5398 8.16464C16.3693 6.01433 17.1887 3.98549 17.9595 2.19664ZM15.0062 8.99675L12.1768 7.22702C10.3048 9.07908 8.68947 10.9622 7.31368 12.9228L15.0062 8.99675ZM5.60894 15.6059C4.15813 18.1457 3.06255 20.8457 2.29536 23.7984L5.60894 25.2555V15.6059ZM5.36885 26.2269L2.05676 24.7705C1.58932 26.7909 1.26865 28.9298 1.08664 31.2152L5.36885 26.2269ZM2.73824 32.7022C4.19796 33.415 5.66672 34.0361 7.13498 34.568C7.16431 34.1219 7.27821 33.489 7.44931 32.7292C7.46563 32.6567 7.48258 32.5827 7.50007 32.5074C5.98304 32.5622 4.40326 32.6271 2.73824 32.7022ZM8.47438 32.7448L16.667 36.8046C13.7483 36.4892 10.7407 35.8207 7.72602 34.7774H8.13136C8.13136 34.4516 8.2285 33.8336 8.42961 32.9407C8.44408 32.8765 8.45899 32.8113 8.47438 32.7448ZM10.0474 32.4231L19.0578 36.8883L27.4353 32.413C21.405 32.2377 16.1695 32.2407 10.0474 32.4231ZM29.5698 31.4983C31.6756 31.5712 33.8935 31.6644 36.2876 31.7779L31.6998 26.4336L28.5753 27.8632C28.8366 28.7903 29.078 29.665 29.2963 30.4736C29.3919 30.8276 29.4832 31.1696 29.5698 31.4983ZM27.6528 28.2853C27.8958 29.1494 28.1211 29.9663 28.3257 30.7245C28.3941 30.9778 28.4601 31.2243 28.5236 31.4634C25.9116 31.3799 23.4609 31.3287 21.0423 31.3098L27.6528 28.2853ZM28.3029 26.9034L31.0314 25.655L26.2923 20.1345C26.3671 20.3771 26.4413 20.6189 26.5149 20.8596C27.165 22.986 27.7693 25.0347 28.3029 26.9034ZM24.6442 18.2145C24.9549 19.1993 25.2587 20.1781 25.5532 21.1412C26.22 23.3222 26.8383 25.4206 27.381 27.3252L19.0178 31.1517L10.013 27.192C10.6323 25.1562 11.3713 22.8599 12.1803 20.4567C12.2977 20.108 12.4165 19.7571 12.5366 19.4045L19.1011 11.7575L24.6442 18.2145ZM23.8653 15.7799C23.2111 13.7637 22.5357 11.7545 21.8589 9.83323L19.8428 11.0942L23.8653 15.7799ZM19.1011 10.3923L16.4043 8.70541C17.2936 6.39375 18.1717 4.22063 18.9903 2.33351C19.8038 4.24196 20.6605 6.47895 21.5201 8.87924L19.1011 10.3923ZM18.3595 11.0942L16.0446 9.6463C15.1586 11.978 14.2678 14.427 13.4196 16.8486L18.3595 11.0942ZM11.6449 18.9159C12.6231 16.0503 13.6859 13.0733 14.7522 10.2343L6.61277 14.3885V24.7779L11.6449 18.9159ZM6.32061 26.6454L1.93388 31.7555C3.98684 31.6606 5.90987 31.5807 7.74278 31.5157C7.90492 30.881 8.09604 30.1775 8.31205 29.4171C8.46347 28.8842 8.62731 28.3227 8.80225 27.7366L6.32061 26.6454ZM9.0892 26.7859L6.9918 25.8636L10.7997 21.4277C10.1709 23.3245 9.59212 25.137 9.0892 26.7859ZM9.72677 28.1432C9.56761 28.678 9.4181 29.1914 9.27925 29.6803C9.09563 30.3266 8.93092 30.9288 8.78739 31.4798C11.6559 31.3852 14.315 31.3283 16.9263 31.309L9.72677 28.1432Z" fill="#020202"/>
</svg>
